<svg id="rocket" viewBox="0 0 34 53" xmlns="http://www.w3.org/2000/svg"><path d="M31.895 51.952l.76-3.457h.207c.132 0 .262-.03.382-.09a.952.952 0 00.318-.26c.088-.11.155-.24.196-.382.042-.142.056-.292.043-.44-.112-1.299-.197-2.943-.288-4.685-.084-1.626-.176-3.38-.302-5.149-.37-5.25-1.097-11.622-3.436-14.274a.886.886 0 00-.664-.312.886.886 0 00-.664.312c-1.851 2.103-2.695 6.375-3.156 10.982a20.561 20.561 0 01-1.924-.44c.063-1.672.106-3.495.106-5.521 0-22.7-5.804-27.356-6.051-27.544a.806.806 0 00-.103-.054.824.824 0 00-.84 0 .805.805 0 00-.101.054c-.245.188-6.05 4.843-6.05 27.544 0 2.026.042 3.851.108 5.526a20.52 20.52 0 01-1.916.44c-.48-4.661-1.344-8.92-3.161-10.983a.886.886 0 00-.664-.312.886.886 0 00-.664.312C1.684 25.885.979 31.934.604 37.498c-.099 1.486-.175 2.964-.247 4.366-.103 2.033-.202 3.951-.351 5.446-.015.15-.002.3.039.443.04.143.106.275.194.387a.954.954 0 00.317.262c.12.061.251.093.383.093h.206l.761 3.457c.05.23.168.436.333.582a.87.87 0 00.578.226h3.756a.87.87 0 00.577-.226c.165-.146.283-.351.333-.582l.762-3.457h.205c.132 0 .262-.03.383-.09a.953.953 0 00.317-.26c.088-.11.155-.24.197-.382.04-.142.055-.292.042-.44-.128-1.435-.221-3.413-.311-5.175a16.796 16.796 0 011.907-1.134 40.536 40.536 0 001.257 6.7l.933 4.238c.05.23.167.435.332.581a.87.87 0 00.577.227h5.633a.87.87 0 00.578-.226c.165-.146.282-.351.333-.582l.924-4.2a36.967 36.967 0 001.264-6.737c.666.336 1.312.72 1.935 1.15-.094 1.919-.188 3.725-.333 5.145-.014.15-.001.3.04.443.04.143.106.275.194.386a.956.956 0 00.316.263c.12.061.25.093.383.093h.206l.76 3.457c.052.23.169.436.334.582a.87.87 0 00.578.226h3.755a.87.87 0 00.578-.226c.165-.146.282-.351.333-.582zm-1.85-11.416l1.409-1.066c.068 1.13.126 2.24.18 3.292.068 1.28.131 2.508.206 3.596h-1.795v-5.822zm-.939-14.82c1.349 2.579 1.894 7.456 2.186 11.318l-2.703 2.04c-.13.098-.236.23-.31.385-.073.156-.112.33-.111.506v6.397h-1.784c.093-1.28.17-2.738.248-4.265.286-5.56.664-12.968 2.474-16.38v-.002zm-7.51 2.52c0 5.26-.332 13.125-1.621 18.126h-2.136V23.775a2.865 2.865 0 001.362-1.161 3.483 3.483 0 00.517-1.842c0-.66-.18-1.304-.517-1.842a2.864 2.864 0 00-1.361-1.16V4.613c1.546 3.004 3.755 9.727 3.755 23.623zm-4.695-8.53c.185 0 .367.062.521.18.155.117.275.283.346.478.071.195.09.41.053.616a1.117 1.117 0 01-.257.546.91.91 0 01-.48.292.835.835 0 01-.543-.06.976.976 0 01-.421-.393 1.171 1.171 0 01-.158-.593c0-.283.099-.554.275-.754a.886.886 0 01.664-.312zm-.94-15.097v13.16a2.864 2.864 0 00-1.36 1.161 3.483 3.483 0 00-.518 1.842c0 .66.18 1.304.517 1.842s.813.944 1.362 1.16v22.588h-2.13c-1.308-5.045-1.626-12.886-1.626-18.126 0-13.908 2.213-20.63 3.756-23.627zM4.696 25.72c2.235 4.3 2.356 15.15 2.732 20.64H5.634v-6.396c0-.176-.038-.349-.111-.503a1.03 1.03 0 00-.307-.384L2.52 37.037c.278-3.854.812-8.723 2.175-11.314v-.002zM1.972 46.362c.1-1.31.177-2.81.257-4.371.041-.813.085-1.653.133-2.504l1.394 1.048v5.827H1.972zm3.864 4.265H3.55l-.47-2.132H6.31l-.473 2.133zm3.106-10.85l-.048-.823a117.87 117.87 0 00-.188-2.625 23.988 23.988 0 001.829-.401c.06 1.035.134 1.99.214 2.879a18.25 18.25 0 00-1.804.97h-.003zm10.042 10.85h-4.167l-.47-2.132h5.106l-.469 2.133zm4.26-14.525c0-.06.008-.114.012-.174.547.142 1.157.276 1.83.4a161.644 161.644 0 00-.233 3.448 18.364 18.364 0 00-1.808-.968c.074-.832.14-1.745.199-2.706zm7.007 14.526h-2.29l-.469-2.133h3.228l-.47 2.133z" fill="#FF56a9"/></svg>