<svg id="rocket" viewBox="0 0 36 53" xmlns="http://www.w3.org/2000/svg"><path d="M35.256 35.881c-7.938-6.007-9.872-20.222-9.917-20.574-.029-3.298-.912-5.495-2.487-8.622C21.362 3.515 19.956.52 17.837.52c-2.12 0-3.526 2.994-5.015 6.164-.502 1.28-2.447 3.979-2.488 8.622-.045.348-1.98 14.567-9.916 20.576a1.03 1.03 0 00-.307.383 1.183 1.183 0 00-.111.502v7.463c0 .26.084.51.235.706a.91.91 0 00.587.352l6.688.95v1.19c0 .283.1.554.275.754.176.2.415.313.664.313v3.198c0 .283.099.554.275.754.176.2.415.312.664.312h3.755a.886.886 0 00.664-.312c.176-.2.275-.471.275-.754v-3.198a.886.886 0 00.663-.313c.177-.2.275-.47.275-.754v-1.066h5.633v1.066c0 .283.099.554.275.754.176.2.415.313.664.313v3.198c0 .283.099.554.275.754.176.2.415.312.664.312h3.755a.886.886 0 00.663-.312c.177-.2.275-.471.275-.754v-3.198a.886.886 0 00.664-.313c.176-.2.275-.47.275-.754v-1.19l6.688-.95a.91.91 0 00.587-.352c.152-.195.235-.446.235-.706v-7.463c0-.175-.038-.348-.11-.503a1.03 1.03 0 00-.307-.384zm-1.46 1.447v1.573h-5.643a7.803 7.803 0 00-.912-2.827 6.835 6.835 0 00-1.854-2.152c-.012-.009-.028-.024-.04-.032V23.592c1.502 4.634 4.099 10.223 8.449 13.736zm-11.265 7.97v-6.035a5.62 5.62 0 01.614-1.987 4.952 4.952 0 011.263-1.542c2.2 1.93 1.799 3.438 1.878 4.233v6.396H22.53v-1.066zM17.837 2.652c.878 0 2.046 2.27 2.994 4.264h-5.989c.948-1.995 2.117-4.264 2.995-4.264zm-4.694 36.61v7.1H9.388v-7.1a5.62 5.62 0 01.614-1.987 4.953 4.953 0 011.263-1.542c.094.107 1.878 1.538 1.878 3.529zM1.878 37.328c4.35-3.518 6.946-9.102 8.448-13.736V33.89a6.542 6.542 0 00-1.901 2.145A7.519 7.519 0 007.52 38.9H1.878v-1.573zm0 5.962v-2.257H7.51v3.056l-5.632-.8zm10.326 7.338h-1.878v-2.132h1.878v2.132zm6.572-6.397v-9.595c0-.283-.1-.554-.276-.754a.886.886 0 00-.663-.312.886.886 0 00-.664.312c-.176.2-.275.471-.275.754v9.595H15.02v-4.968a7.895 7.895 0 00-.867-3.052 6.894 6.894 0 00-1.949-2.321V15.446c.01-2.262.575-4.477 1.63-6.397h8.006c1.06 1.918 1.624 4.134 1.63 6.397V33.89a6.713 6.713 0 00-1.964 2.31 7.713 7.713 0 00-.853 3.063v4.968h-1.877zm6.57 6.397H23.47v-2.132h1.878v2.132zm8.45-7.338l-5.633.8v-3.057h5.633v2.257z" fill="#9570ee"/><path d="M21.592 16.512c0-1.13-.396-2.215-1.1-3.015-.704-.8-1.66-1.249-2.655-1.249-.996 0-1.951.45-2.655 1.25-.705.799-1.1 1.884-1.1 3.014 0 .283.099.554.275.754.176.2.415.313.663.313h5.633a.886.886 0 00.664-.313c.176-.2.275-.47.275-.753zm-5.38-1.066c.165-.323.402-.592.687-.779.285-.187.608-.285.938-.285.329 0 .652.098.938.285.285.187.522.456.687.78h-3.25z" fill="#9570ee"/></svg>