<svg id="rocket" viewBox="0 0 27 53" xmlns="http://www.w3.org/2000/svg"><path d="M24.683 33.364l-.03-.058a.992.992 0 00-.326-.463.812.812 0 00-.498-.175 13.85 13.85 0 00-2.816.312c.101-1.592.162-3.356.162-5.335a45.658 45.658 0 00-.699-8.238c-1.538-8.474-5.156-12.29-6.378-13.368V1.525c0-.266-.093-.522-.259-.71a.835.835 0 00-.625-.294.835.835 0 00-.626.294c-.166.188-.259.444-.259.71V6.04c-1.222 1.079-4.84 4.894-6.378 13.361a45.664 45.664 0 00-.699 8.245c0 1.975.062 3.742.166 5.336a13.83 13.83 0 00-2.82-.313.813.813 0 00-.498.175.993.993 0 00-.325.463l-.03.058c-1.966 3.84-2.277 10.263-.9 18.577.037.225.141.43.294.578a.827.827 0 00.549.241h.026a.82.82 0 00.545-.213c.155-.138.266-.33.314-.548.906-4.128 1.545-6.262 2.188-7.259 1.117.135 2.22.395 3.293.776l.763 3.469c.048.217.158.41.314.548a.82.82 0 00.544.213h7.077a.82.82 0 00.545-.213c.155-.138.265-.33.313-.548l.764-3.47a15.305 15.305 0 013.292-.775c.643.997 1.282 3.13 2.189 7.258.047.218.158.411.314.55a.82.82 0 00.545.212h.025a.827.827 0 00.549-.24c.153-.15.257-.354.294-.579 1.378-8.314 1.066-14.736-.9-18.577zm-11.47-5.72c-.35 0-.691-.117-.982-.338a1.975 1.975 0 01-.652-.902 2.263 2.263 0 01-.1-1.16c.068-.39.236-.748.484-1.03.247-.28.562-.471.905-.549a1.574 1.574 0 011.023.114c.323.152.6.41.794.74.194.33.298.72.298 1.117 0 .533-.187 1.044-.518 1.42a1.67 1.67 0 01-1.251.589zm.885 1.867c.834-.244 1.56-.826 2.044-1.635a4.45 4.45 0 00.582-2.762c-.109-.97-.525-1.862-1.171-2.509-.647-.646-1.478-1.003-2.34-1.003-.86 0-1.692.357-2.338 1.003-.647.647-1.063 1.539-1.172 2.51a4.45 4.45 0 00.582 2.76c.483.81 1.21 1.392 2.044 1.636V43.72h-3.02c-.725-1.586-2.288-6.16-2.288-16.074a44.53 44.53 0 01.525-7.032h3.014a.807.807 0 00.465-.15.969.969 0 00.326-.406l.64-1.454h2.445l.64 1.454a.97.97 0 00.326.406c.14.098.301.15.465.15h3.014a44.53 44.53 0 01.525 7.032c0 2.5-.096 4.651-.25 6.5v.012c-.476 5.5-1.466 8.338-2.034 9.562h-3.024V29.51zm-.884-21.7c1.104 1.067 3.862 4.274 5.289 10.79h-2.089l-.635-1.451a.969.969 0 00-.328-.407.807.807 0 00-.468-.149h-3.539a.807.807 0 00-.465.15.969.969 0 00-.326.406l-.64 1.453H7.924c1.428-6.518 4.186-9.724 5.29-10.788v-.003zM4.367 42.715a.835.835 0 00-.625.294 10.305 10.305 0 00-1.763 3.925c-.487-5.314-.1-9.56 1.141-12.246.827.044 1.65.169 2.458.373a36.371 36.371 0 001.572 8.099 11.555 11.555 0 00-2.783-.445zm11.694 5.023h-5.695l-.442-2.01h6.58l-.443 2.01zm8.386-.804a10.305 10.305 0 00-1.762-3.928.834.834 0 00-.625-.291c-.934.034-1.862.183-2.768.444a35.606 35.606 0 001.561-8.096 12.743 12.743 0 012.453-.372c1.242 2.687 1.629 6.932 1.142 12.243z" fill="#489aff"/></svg>