<svg width="535" height="382" fill="none" xmlns="http://www.w3.org/2000/svg"><path d="M449.994 316.064c6.227-3.581 11.441-8.537 15.194-14.443 3.753-5.906 5.934-12.585 6.354-19.464.419-6.878-.934-13.75-3.944-20.025-3.01-6.275-7.586-11.765-13.336-15.999a161.952 161.952 0 0118.552-20.77 200.679 200.679 0 019.888-8.726 89.11 89.11 0 013.908 3.305l11.082-6.402a12.473 12.473 0 014.406-1.531 12.715 12.715 0 014.69.179c1.536.35 2.984.983 4.261 1.862a11.65 11.65 0 013.182 3.263l10.986 16.981a10.984 10.984 0 011.62 4.165 10.766 10.766 0 01-.189 4.434 11.102 11.102 0 01-1.971 4.027 11.796 11.796 0 01-3.451 3.009l-11.082 6.402a77.86 77.86 0 013.552 24.207l12.524 3.305a12.304 12.304 0 014.191 2.004 11.58 11.58 0 013.06 3.368 10.94 10.94 0 011.462 4.22 10.78 10.78 0 01-.359 4.427l-5.66 19.171a11.165 11.165 0 01-2.12 3.962 11.88 11.88 0 01-3.564 2.892 12.505 12.505 0 01-4.464 1.382 12.695 12.695 0 01-4.683-.339l-12.513-3.299a82.398 82.398 0 01-11.906 14.896l6.773 10.476c1.658 2.575 2.168 5.666 1.417 8.596-.752 2.93-2.703 5.457-5.424 7.028l-17.965 10.385a12.48 12.48 0 01-4.406 1.531 12.698 12.698 0 01-4.691-.18 12.38 12.38 0 01-4.261-1.863 11.633 11.633 0 01-3.181-3.263l-6.773-10.473a91.181 91.181 0 01-19.712 3.211 123.633 123.633 0 01-4.943-39.693c8.289.021 16.423-2.131 23.496-6.218z" fill="#489AFF"/><path d="M418.596 79.88H31.34c-10.509 0-19.027 8.053-19.027 17.986v249.688c0 9.933 8.518 17.986 19.027 17.986h387.256c10.509 0 19.028-8.053 19.028-17.986V97.866c0-9.933-8.519-17.986-19.028-17.986z" fill="#E3EAFF"/><path d="M416.945 83.64H32.988c-8.329 0-15.081 6.382-15.081 14.255v249.633c0 7.873 6.752 14.255 15.081 14.255h383.957c8.329 0 15.081-6.382 15.081-14.255V97.895c0-7.873-6.752-14.256-15.081-14.256z" fill="#6DB8FF"/><path d="M404.828 96.73H45.105c-5.131 0-9.291 3.932-9.291 8.782v222.947c0 4.85 4.16 8.782 9.291 8.782h359.723c5.131 0 9.291-3.932 9.291-8.782V105.512c0-4.85-4.16-8.783-9.291-8.783z" fill="#2F6DFF"/><path d="M1.983 350.729A14.28 14.28 0 000 357.871c0 3.998 1.68 7.833 4.671 10.66 2.991 2.828 7.048 4.416 11.278 4.416h418.036c2.094 0 4.168-.389 6.104-1.147a16.032 16.032 0 005.175-3.268 15.06 15.06 0 003.458-4.891 14.357 14.357 0 001.214-5.77 14.277 14.277 0 00-1.986-7.142H1.983z" fill="#E3EAFF"/><path d="M1.983 365.013c1.353 2.391 3.366 4.392 5.825 5.789a16.591 16.591 0 008.14 2.145h418.037a16.588 16.588 0 008.14-2.145c2.459-1.397 4.472-3.398 5.825-5.789H1.983z" fill="#C8D6F2"/><path opacity=".2" d="M418.596 79.88H134.792v179.286a6.814 6.814 0 00.577 2.747 7.167 7.167 0 001.646 2.33 7.655 7.655 0 002.464 1.556c.922.36 1.909.546 2.907.545h295.246V97.866c0-2.362-.493-4.702-1.449-6.885a17.957 17.957 0 00-4.127-5.836 19.136 19.136 0 00-6.176-3.898 19.983 19.983 0 00-7.284-1.367z" fill="#424261"/><path opacity=".21" d="M469.867 59.069H152.825c-4.194 0-7.594 3.214-7.594 7.178V251.09c0 3.965 3.4 7.179 7.594 7.179h317.042c4.194 0 7.594-3.214 7.594-7.179V66.247c0-3.964-3.4-7.178-7.594-7.178z" fill="#E3EAFF"/><path d="M483.157 45.61H166.115c-4.194 0-7.594 3.214-7.594 7.179V237.63c0 3.965 3.4 7.179 7.594 7.179h317.042c4.195 0 7.595-3.214 7.595-7.179V52.789c0-3.965-3.4-7.179-7.595-7.179z" fill="#F9FBFC"/><path opacity=".2" d="M97.179 138.928h-33.7c-2.62 0-4.746 2.009-4.746 4.486v33.65c0 2.477 2.125 4.486 4.746 4.486h33.7c2.62 0 4.746-2.009 4.746-4.486v-33.65c0-2.477-2.125-4.486-4.746-4.486z" fill="#424261"/><path d="M94.688 200.84h-33.7c-2.62 0-4.746 2.008-4.746 4.486v33.649c0 2.478 2.125 4.486 4.746 4.486h33.7c2.62 0 4.745-2.008 4.745-4.486v-33.649c0-2.478-2.124-4.486-4.745-4.486zM94.688 261.409h-33.7c-2.62 0-4.746 2.009-4.746 4.486v33.65c0 2.477 2.125 4.486 4.746 4.486h33.7c2.62 0 4.745-2.009 4.745-4.486v-33.65c0-2.477-2.124-4.486-4.745-4.486z" fill="#6DB8FF"/><path d="M87.272 278.025c0-2.574-1.082-5.043-3.007-6.862-1.925-1.82-4.536-2.843-7.26-2.843-2.722 0-5.333 1.023-7.259 2.843-1.925 1.819-3.007 4.288-3.007 6.862 0 0-1.447 10.278 10.267 18.451 11.713-8.173 10.266-18.451 10.266-18.451z" fill="#9570EE"/><path d="M77.61 285.032a7.79 7.79 0 01-4.352-.934 7.198 7.198 0 01-3.002-3.121 6.681 6.681 0 01-.573-4.183 6.914 6.914 0 012.063-3.741 7.594 7.594 0 013.957-1.95 7.832 7.832 0 014.426.541 7.302 7.302 0 013.301 2.838 6.722 6.722 0 01.988 4.114c-.144 1.661-.907 3.221-2.154 4.399-1.247 1.179-2.896 1.901-4.654 2.037z" fill="#F9FBFC"/><path d="M91.007 221.588a12.91 12.91 0 01-2.392 7.461c-1.56 2.209-3.78 3.93-6.375 4.947a14.975 14.975 0 01-8.207.765c-2.756-.518-5.287-1.797-7.274-3.674-1.987-1.878-3.34-4.271-3.888-6.875a12.749 12.749 0 01.808-7.759c1.075-2.454 2.895-4.551 5.231-6.026a14.793 14.793 0 017.892-2.264c3.767 0 7.38 1.415 10.044 3.932 2.664 2.518 4.16 5.933 4.161 9.493z" fill="#9570EE"/><path d="M88.258 221.588c0 2.142-.67 4.236-1.93 6.017-1.258 1.781-3.047 3.17-5.14 3.99a12.068 12.068 0 01-6.619.617c-2.222-.418-4.264-1.449-5.866-2.963-1.602-1.514-2.694-3.444-3.136-5.544a10.28 10.28 0 01.652-6.257c.867-1.979 2.335-3.671 4.219-4.861a11.932 11.932 0 016.364-1.825c3.038 0 5.951 1.141 8.1 3.171 2.148 2.03 3.355 4.784 3.356 7.655z" fill="#F9FBFC"/><path d="M76.802 210.762a11.902 11.902 0 016.853 2.146c1.98 1.394 3.43 3.356 4.133 5.594.029.09.087.169.166.226a.49.49 0 00.48.043.45.45 0 00.162-.127.416.416 0 00.074-.379c-.751-2.423-2.313-4.552-4.451-6.066-2.138-1.514-4.738-2.332-7.41-2.332-2.671 0-5.271.818-7.41 2.332-2.138 1.514-3.7 3.643-4.45 6.066a.41.41 0 00.074.379.45.45 0 00.161.127.477.477 0 00.48-.043.442.442 0 00.166-.226c.703-2.236 2.151-4.196 4.128-5.591a11.901 11.901 0 016.844-2.149z" fill="#BB87EE"/><path d="M89.521 221.934c-.33 0-.649.112-.898.316a1.28 1.28 0 00-.461.795c-.371 2.596-1.725 4.977-3.812 6.701-2.087 1.724-4.764 2.674-7.535 2.674-2.772 0-5.449-.95-7.535-2.674-2.087-1.724-3.441-4.105-3.812-6.701a1.28 1.28 0 00-.461-.795 1.422 1.422 0 00-.899-.316 1.419 1.419 0 00-1.038.436c-.13.138-.227.301-.285.478a1.23 1.23 0 00-.05.547c.46 3.22 2.14 6.172 4.727 8.31 2.588 2.138 5.908 3.317 9.345 3.317 3.436 0 6.756-1.179 9.344-3.317 2.588-2.138 4.267-5.09 4.727-8.31a1.23 1.23 0 00-.05-.547 1.276 1.276 0 00-.285-.478 1.419 1.419 0 00-1.038-.436h.016z" fill="#7F57EE"/><path d="M88.258 221.588c0 2.142-.67 4.236-1.93 6.017-1.258 1.781-3.047 3.17-5.14 3.99a12.068 12.068 0 01-6.619.617c-2.222-.418-4.264-1.449-5.866-2.963-1.602-1.514-2.694-3.444-3.136-5.544a10.28 10.28 0 01.652-6.257c.867-1.979 2.335-3.671 4.219-4.861a11.932 11.932 0 016.364-1.825c3.038 0 5.951 1.141 8.1 3.171 2.148 2.03 3.355 4.784 3.356 7.655z" fill="#F9FBFC"/><path d="M87.97 225.083a.484.484 0 00-.266.079.444.444 0 00-.168.209c-.816 2.069-2.28 3.852-4.199 5.112a11.921 11.921 0 01-6.533 1.934 11.92 11.92 0 01-6.533-1.934c-1.918-1.26-3.383-3.043-4.199-5.112a.444.444 0 00-.169-.209.484.484 0 00-.478-.03.425.425 0 00-.243.329c-.01.07 0 .14.025.206.88 2.236 2.464 4.163 4.537 5.524a12.88 12.88 0 007.06 2.091c2.524 0 4.987-.73 7.06-2.091 2.073-1.361 3.656-3.288 4.537-5.524a.413.413 0 00-.054-.399.452.452 0 00-.165-.136.487.487 0 00-.212-.049zM76.772 222.528a.563.563 0 01-.388-.152.503.503 0 01-.161-.367v-7.622c0-.138.058-.27.16-.368a.568.568 0 01.777 0c.104.098.162.23.162.368v7.622c0 .138-.058.27-.161.367a.563.563 0 01-.389.152z" fill="#9570EE"/><path d="M76.377 221.734a.56.56 0 01.373-.183.564.564 0 01.4.12l4.975 3.975a.524.524 0 01.194.353.495.495 0 01-.128.379.565.565 0 01-.374.183.566.566 0 01-.4-.12l-4.974-3.975a.503.503 0 01-.17-.555.508.508 0 01.104-.177z" fill="#9570EE"/><path d="M76.896 211.497h-.412v1.038h.412v-1.038zM76.896 230.467h-.412v1.039h.412v-1.039zM66.105 221.308v.39h1.099v-.39h-1.1zM86.174 221.308v.39h1.098v-.39h-1.099zM69.352 214.291l-.292.275.777.734.292-.275-.777-.734zM83.54 227.705l-.292.275.777.735.292-.276-.777-.734zM69.06 228.44l.291.275.777-.734-.291-.276-.777.735zM83.251 215.025l.291.275.777-.734-.291-.275-.777.734z" fill="#CED6FF"/><path d="M94.688 137.581h-33.7c-2.62 0-4.746 2.008-4.746 4.486v33.649c0 2.478 2.125 4.486 4.746 4.486h33.7c2.62 0 4.745-2.008 4.745-4.486v-33.649c0-2.478-2.124-4.486-4.745-4.486z" fill="#6DB8FF"/><path d="M54.166 175.828l3.57-2.355 1.602-5.553-1.78-.338-1.068 2.02 1.068-9.59-1.78.337-1.78 9.253-2.147 4.377 1.958 1.179M75.24 185.81l.475-4.037 5.218-4.933 1.187 1.558-1.898 2.02 9.967-2.243v2.02l-9.256 3.375-1.898 3.141-3.795-.901z" fill="#F7D3A9"/><path d="M10.247 285.637l19.412 89.769 14.691-1.488-9.97-3.471 3.672-.992-5.245-83.818h-22.56z" fill="#544DB8"/><path d="M41.203 284.149s24.657 21.824 20.985 48.108c-4.196 20.832-13.117 28.766-13.117 28.766l-2.622-.496 4.064 10.166-11.81-11.9s14.557-18.971 5.51-38.684c-5.74-11.98-15.975-21.522-28.726-26.782 0 0 16.921-14.508 18.102-14.134a82.156 82.156 0 017.614 4.956z" fill="#544DB8"/><path d="M51.694 172.422s-40.53 46.508-45.25 55.818c0 0-1.97 3.346-1.97 13.02 0 9.673 3.543 45.379 3.543 45.379l41.318 2.233s-13.38-43.521-13.774-44.637c-3.366-4.303-8.029-7.545-13.378-9.299l34.628-59.145-5.117-3.369z" fill="#FF8B40"/><path d="M26.031 230.434s1.722 4.829 2.672 7.747c0 0-8.434-.169-11.403-3.874l3.148-7.129 5.583 3.256z" fill="#F7D3A9"/><path d="M32.444 215.345s2.494 13.731 0 16.852c-2.494 3.12-11.046-2.186-14.611-7.179-3.565-4.992-4.274-16.229 1.782-17.163a11.742 11.742 0 017.948 1.398c2.373 1.385 4.113 3.558 4.881 6.092z" fill="#F7D3A9"/><path d="M28.61 240.764s32.494-19.324 35.114-23.288c2.62-3.964 9.959-33.442 9.959-33.442l6.289 1.488s-3.67 32.946-4.716 36.414c-1.046 3.469-33.02 35.672-40.356 35.672-7.336 0-9.96-8.918-6.29-16.844z" fill="#FF8B40"/><path d="M14.95 208.467a12.3 12.3 0 015.307-3.687c2.091-.75 4.359-.949 6.56-.573 7.59 1.345 9.492-.226 9.492-.226s-1.648 7.851-6.883 9.648c-5.235 1.796-6.644 1.344-6.644 1.344a16.811 16.811 0 013.57 4.71c.712 2.02-2.372-2.467-3.57-.896-1.197 1.571 0 4.933 2.373 4.71 2.373-.224.948 1.57 0 3.375-.948 1.804-2.373 4.039-3.798 3.375-3.898-1.855-6.878-5.074-8.306-8.973-1.898-5.628-2.373-11.01 1.898-12.807z" fill="#544DB8"/><path d="M275.04 66.47h-92.55c-1.966 0-3.56 1.507-3.56 3.365v152.091c0 1.858 1.594 3.365 3.56 3.365h92.55c1.966 0 3.56-1.507 3.56-3.365V69.836c0-1.859-1.594-3.365-3.56-3.365z" fill="#E3EAFF"/><path d="M257.716 79.257h-58.852c-1.573 0-2.848 1.205-2.848 2.692v8.074c0 1.487 1.275 2.693 2.848 2.693h58.852c1.573 0 2.848-1.206 2.848-2.693V81.95c0-1.487-1.275-2.692-2.848-2.692zM217.612 167.528h-12.818a5.625 5.625 0 01-3.857-1.512c-1.023-.967-1.598-2.279-1.598-3.647 0-1.367.575-2.679 1.598-3.646a5.618 5.618 0 013.857-1.51h12.818c.716 0 1.426.133 2.088.392a5.483 5.483 0 011.77 1.117 5.149 5.149 0 011.183 1.673 4.904 4.904 0 010 3.948 5.142 5.142 0 01-1.183 1.674 5.475 5.475 0 01-1.77 1.118 5.738 5.738 0 01-2.088.393z" fill="#6DB8FF"/><path d="M254.631 167.528h-12.817a5.627 5.627 0 01-3.858-1.512c-1.022-.967-1.597-2.279-1.597-3.647 0-1.367.575-2.679 1.598-3.646 1.022-.967 2.41-1.51 3.857-1.51h12.817c.717 0 1.426.133 2.089.392a5.483 5.483 0 011.77 1.117 5.149 5.149 0 011.183 1.673c.274.626.416 1.297.416 1.974 0 .678-.142 1.348-.416 1.974a5.142 5.142 0 01-1.183 1.674 5.486 5.486 0 01-1.77 1.118 5.74 5.74 0 01-2.089.393z" fill="#9570EE"/><path d="M263.884 106.177h-69.293v10.32h69.293v-10.32zM263.884 123.673h-69.293v10.32h69.293v-10.32z" fill="#F9FBFC"/><path d="M249.41 140.499h-39.868v2.354h39.868v-2.354z" fill="#CDD4FF"/><path d="M483.99 195.907H359.401c-3.681-.001-7.212-1.384-9.815-3.845-2.603-2.461-4.065-5.799-4.065-9.279 0-3.48 1.462-6.818 4.065-9.279 2.603-2.461 6.134-3.844 9.815-3.845H483.99c3.681.001 7.212 1.384 9.815 3.845 2.603 2.461 4.065 5.799 4.065 9.279 0 3.48-1.462 6.818-4.065 9.279-2.603 2.461-6.134 3.844-9.815 3.845z" fill="#9570EE"/><path d="M376.133 84.641h-77.605c-3.021 0-5.918-1.134-8.054-3.153-2.137-2.019-3.337-4.757-3.338-7.613 0-1.414.295-2.815.867-4.121a10.757 10.757 0 012.47-3.494 11.45 11.45 0 013.696-2.334 11.963 11.963 0 014.359-.82h77.599c3.021 0 5.918 1.136 8.054 3.155 2.136 2.02 3.336 4.758 3.336 7.614 0 2.855-1.199 5.592-3.334 7.611-2.135 2.02-5.03 3.154-8.05 3.155z" fill="#E3EAFF"/><path d="M317.042 73.875c0 .668-.209 1.32-.601 1.875-.393.555-.95.988-1.603 1.243a3.763 3.763 0 01-2.063.192 3.644 3.644 0 01-1.828-.924 3.326 3.326 0 01-.977-1.728 3.204 3.204 0 01.203-1.95 3.423 3.423 0 011.315-1.514 3.72 3.72 0 011.984-.57 3.68 3.68 0 012.525.99 3.286 3.286 0 011.045 2.386z" fill="#FFC240"/><path d="M341.486 73.875c0 .668-.21 1.32-.602 1.875-.392.555-.95.988-1.602 1.243a3.764 3.764 0 01-2.063.192 3.636 3.636 0 01-1.828-.924 3.312 3.312 0 01-.977-1.728 3.204 3.204 0 01.203-1.95 3.423 3.423 0 011.315-1.514 3.717 3.717 0 011.983-.57c.947 0 1.856.357 2.525.99a3.283 3.283 0 011.046 2.386z" fill="#90C240"/><path d="M364.029 73.875a3.24 3.24 0 01-.602 1.875c-.392.555-.95.988-1.602 1.243a3.763 3.763 0 01-2.063.192 3.636 3.636 0 01-1.828-.924 3.326 3.326 0 01-.977-1.728 3.204 3.204 0 01.203-1.95 3.423 3.423 0 011.315-1.514 3.717 3.717 0 011.984-.57c.947 0 1.855.357 2.524.99a3.283 3.283 0 011.046 2.386z" fill="#EB4F24"/><path d="M77.34 169.711c4.79 0 8.671-3.669 8.671-8.196 0-4.527-3.882-8.196-8.67-8.196-4.789 0-8.67 3.669-8.67 8.196 0 4.527 3.881 8.196 8.67 8.196z" fill="#fff"/><path d="M86.33 151.616h-1.527l-2.197-2.924a.923.923 0 00-.33-.27.972.972 0 00-.425-.098h-8.762a.966.966 0 00-.424.097.917.917 0 00-.328.271l-2.197 2.924h-1.53a4.458 4.458 0 00-3.051 1.2 3.985 3.985 0 00-1.27 2.883v11.883a3.987 3.987 0 001.27 2.884 4.463 4.463 0 003.05 1.2h17.716a4.463 4.463 0 003.05-1.2 3.987 3.987 0 001.27-2.884v-11.883a3.987 3.987 0 00-1.268-2.882 4.459 4.459 0 00-3.047-1.201zm-8.857 15.943a6.63 6.63 0 01-3.539-1.015 6.105 6.105 0 01-2.346-2.702 5.713 5.713 0 01-.362-3.478 5.927 5.927 0 011.743-3.083 6.497 6.497 0 013.261-1.648 6.713 6.713 0 013.68.343 6.308 6.308 0 012.858 2.217 5.794 5.794 0 011.074 3.345c0 1.597-.671 3.128-1.866 4.258-1.194 1.129-2.814 1.763-4.503 1.763z" fill="#9570EE"/><path d="M77.473 165.521c2.325 0 4.21-1.782 4.21-3.98s-1.885-3.98-4.21-3.98c-2.326 0-4.21 1.782-4.21 3.98s1.884 3.98 4.21 3.98z" fill="#6DB8FF"/><path d="M322.263 106.688h65.141c1.49 0 2.919.56 3.972 1.555 1.053.996 1.645 2.346 1.645 3.755v36.803c0 1.408-.592 2.759-1.645 3.755-1.053.995-2.482 1.555-3.972 1.555h-65.143a5.892 5.892 0 01-2.149-.405 5.623 5.623 0 01-1.822-1.151 5.302 5.302 0 01-1.217-1.722 5.045 5.045 0 01-.426-2.032v-36.803c0-1.409.592-2.759 1.645-3.755a5.788 5.788 0 013.971-1.555z" fill="#E3EAFF"/><path d="M354.905 130.031h-.148c-.341 0-.677-.082-.975-.239l-29.437-15.46a2 2 0 01-.626-.472 1.881 1.881 0 01-.381-.666 1.815 1.815 0 01.166-1.475c.131-.222.308-.418.521-.574a2.107 2.107 0 012.27-.129l28.536 14.988 28.539-14.988a2.107 2.107 0 012.27.129c.213.156.39.352.521.574a1.816 1.816 0 01-.215 2.141 2 2 0 01-.626.472l-29.44 15.46c-.297.158-.633.24-.975.239z" fill="#FD4940"/><path d="M500.007 33.496h-84.72c-2.752 0-4.983 2.109-4.983 4.71v106.332c0 2.601 2.231 4.71 4.983 4.71h84.72c2.752 0 4.982-2.109 4.982-4.71V38.206c0-2.601-2.23-4.71-4.982-4.71z" fill="#544DB8"/><path d="M431.458 49.011h-6.317c-.335 0-.607-.52-.607-1.153 0-.636.275-1.152.607-1.152h6.317c.335 0 .607.519.607 1.152 0 .637-.272 1.153-.607 1.153zM470.515 49.011H434.43c-.336 0-.607-.52-.607-1.153 0-.636.274-1.152.607-1.152h36.085c.336 0 .607.519.607 1.152 0 .637-.271 1.153-.607 1.153z" fill="#0CF"/><path d="M445.94 53.775h-11.51c-.336 0-.607-.52-.607-1.153 0-.638.274-1.152.607-1.152h11.51c.335 0 .607.519.607 1.152 0 .634-.258 1.153-.607 1.153z" fill="#FF56A9"/><path d="M464.874 53.775h-16.591c-.335 0-.607-.52-.607-1.153 0-.638.274-1.152.607-1.152h16.591c.335 0 .607.519.607 1.152 0 .634-.272 1.153-.607 1.153zM470.515 76.983H434.43c-.336 0-.607-.52-.607-1.153 0-.636.274-1.153.607-1.153h36.085c.336 0 .607.52.607 1.153 0 .636-.271 1.153-.607 1.153z" fill="#E3EAFF"/><path d="M431.458 81.75h-6.317c-.335 0-.607-.52-.607-1.153 0-.637.275-1.153.607-1.153h6.317c.335 0 .607.519.607 1.153 0 .636-.272 1.152-.607 1.152z" fill="#0CF"/><path d="M445.94 81.75h-11.51c-.336 0-.607-.52-.607-1.153 0-.637.274-1.153.607-1.153h11.51c.335 0 .607.519.607 1.153 0 .636-.258 1.152-.607 1.152z" fill="#E3EAFF"/><path d="M464.874 81.75h-16.591c-.335 0-.607-.52-.607-1.153 0-.637.274-1.153.607-1.153h16.591c.335 0 .607.519.607 1.153 0 .636-.272 1.152-.607 1.152zM479.466 58.544h-45.042c-.335 0-.607-.519-.607-1.152 0-.639.275-1.156.607-1.156h45.042c.335 0 .607.52.607 1.156-.003.636-.277 1.152-.607 1.152z" fill="#FF56A9"/><path d="M470.027 61.003H459.54c-.354 0-.642.272-.642.608v1.09c0 .335.288.607.642.607h10.487c.354 0 .642-.272.642-.607v-1.09c0-.336-.288-.608-.642-.608z" fill="#0CF"/><path d="M449.39 63.311h-14.96c-.336 0-.607-.52-.607-1.155 0-.636.274-1.153.607-1.153h14.96c.335 0 .607.52.607 1.153 0 .638-.272 1.155-.607 1.155z" fill="#E3EAFF"/><path d="M457.352 63.311h-5.933c-.335 0-.607-.52-.607-1.155 0-.636.275-1.153.607-1.153h5.933c.335 0 .607.52.607 1.153 0 .638-.272 1.155-.607 1.155z" fill="#0CF"/><path d="M431.458 67.917h-6.317c-.335 0-.607-.52-.607-1.153 0-.636.275-1.153.607-1.153h6.317c.335 0 .607.52.607 1.153 0 .636-.272 1.153-.607 1.153zM479.466 67.917h-45.042c-.335 0-.607-.52-.607-1.153 0-.636.275-1.153.607-1.153h45.042c.335 0 .607.52.607 1.153-.003.636-.277 1.153-.607 1.153zM431.458 86.163h-6.317c-.335 0-.607-.52-.607-1.153 0-.636.275-1.153.607-1.153h6.317c.335 0 .607.52.607 1.153 0 .636-.272 1.153-.607 1.153zM474.426 83.857h-14.773c-.417 0-.755.32-.755.714v.878c0 .394.338.714.755.714h14.773c.418 0 .756-.32.756-.714v-.878c0-.394-.338-.714-.756-.714zM449.39 86.163h-14.96c-.336 0-.607-.52-.607-1.153 0-.636.274-1.153.607-1.153h14.96c.335 0 .607.52.607 1.153 0 .636-.272 1.153-.607 1.153zM457.352 86.163h-5.933c-.335 0-.607-.52-.607-1.153 0-.636.275-1.153.607-1.153h5.933c.335 0 .607.52.607 1.153 0 .636-.272 1.153-.607 1.153z" fill="#E3EAFF"/><path d="M431.458 90.771h-6.317c-.335 0-.607-.52-.607-1.153 0-.638.275-1.152.607-1.152h6.317c.335 0 .607.519.607 1.152 0 .636-.272 1.153-.607 1.153z" fill="#FFC359"/><path d="M442.227 90.771h-7.797c-.336 0-.607-.52-.607-1.153 0-.638.274-1.152.607-1.152h7.797c.335 0 .607.519.607 1.152 0 .636-.272 1.153-.607 1.153zM425.141 72.683c-.335 0-.607-.519-.607-1.152 0-.637.275-1.153.607-1.153h6.317c.335 0 .607.52.607 1.153 0 .636-.275 1.152-.607 1.152" fill="#0CF"/><path d="M476.497 70.378H459.7c-.443 0-.802.34-.802.758v.79c0 .418.359.757.802.757h16.797c.443 0 .802-.34.802-.758v-.79c0-.418-.359-.757-.802-.757z" fill="#E3EAFF"/><path d="M449.39 72.683h-14.96c-.336 0-.607-.519-.607-1.152 0-.637.274-1.153.607-1.153h14.96c.335 0 .607.52.607 1.153 0 .636-.272 1.152-.607 1.152zM457.352 72.683h-5.933c-.335 0-.607-.519-.607-1.152 0-.637.275-1.153.607-1.153h5.933c.335 0 .607.52.607 1.153 0 .636-.272 1.152-.607 1.152z" fill="#FFC359"/><path d="M470.515 95.67H434.43c-.336 0-.607-.52-.607-1.153 0-.636.274-1.152.607-1.152h36.085c.336 0 .607.519.607 1.152 0 .636-.271 1.153-.607 1.153zM445.94 100.437h-11.51c-.336 0-.607-.52-.607-1.153 0-.636.274-1.153.607-1.153h11.51c.335 0 .607.52.607 1.153 0 .636-.258 1.153-.607 1.153zM464.874 100.437h-16.591c-.335 0-.607-.52-.607-1.153 0-.636.274-1.153.607-1.153h16.591c.335 0 .607.52.607 1.153 0 .636-.272 1.153-.607 1.153zM470.515 123.642H434.43c-.336 0-.607-.52-.607-1.153 0-.636.274-1.153.607-1.153h36.085c.336 0 .607.519.607 1.153 0 .639-.271 1.153-.607 1.153z" fill="#E3EAFF"/><path d="M431.458 128.408h-6.317c-.335 0-.607-.519-.607-1.153 0-.636.275-1.152.607-1.152h6.317c.335 0 .607.519.607 1.152 0 .637-.272 1.153-.607 1.153z" fill="#FF56A9"/><path d="M445.94 128.408h-11.51c-.336 0-.607-.519-.607-1.153 0-.636.274-1.152.607-1.152h11.51c.335 0 .607.519.607 1.152 0 .637-.258 1.153-.607 1.153z" fill="#0CF"/><path d="M464.874 128.408h-16.591c-.335 0-.607-.519-.607-1.153 0-.636.274-1.152.607-1.152h16.591c.335 0 .607.519.607 1.152 0 .637-.272 1.153-.607 1.153z" fill="#E3EAFF"/><path d="M431.458 105.203h-6.317c-.335 0-.607-.519-.607-1.152 0-.639.275-1.153.607-1.153h6.317c.335 0 .607.519.607 1.153 0 .636-.272 1.152-.607 1.152zM466.646 102.898h-32.09c-.405 0-.733.31-.733.693v.919c0 .383.328.693.733.693h32.09c.405 0 .733-.31.733-.693v-.919c0-.383-.328-.693-.733-.693z" fill="#FF56A9"/><path d="M431.458 109.97h-6.317c-.335 0-.607-.519-.607-1.155s.275-1.153.607-1.153h6.317c.335 0 .607.519.607 1.153 0 .638-.272 1.155-.607 1.155zM449.39 109.97h-14.96c-.336 0-.607-.519-.607-1.155s.274-1.153.607-1.153h14.96c.335 0 .607.519.607 1.153 0 .638-.272 1.155-.607 1.155zM457.352 109.97h-5.933c-.335 0-.607-.519-.607-1.155s.275-1.153.607-1.153h5.933c.335 0 .607.519.607 1.153 0 .638-.272 1.155-.607 1.155zM431.458 114.576h-6.317c-.335 0-.607-.52-.607-1.153 0-.636.275-1.153.607-1.153h6.317c.335 0 .607.519.607 1.153 0 .639-.272 1.153-.607 1.153zM434.647 112.27h40.606a.85.85 0 01.583.228.76.76 0 01.241.551v.75a.76.76 0 01-.241.551.85.85 0 01-.583.228h-40.606a.848.848 0 01-.583-.228.755.755 0 01-.241-.551v-.75c0-.207.086-.405.241-.551a.848.848 0 01.583-.228zM431.458 132.822h-6.317c-.335 0-.607-.52-.607-1.153 0-.636.275-1.153.607-1.153h6.317c.335 0 .607.52.607 1.153 0 .636-.272 1.153-.607 1.153zM479.42 132.822h-19.915c-.335 0-.607-.52-.607-1.153 0-.636.274-1.153.607-1.153h19.915c.335 0 .607.52.607 1.153 0 .636-.272 1.153-.607 1.153zM449.39 132.822h-14.96c-.336 0-.607-.52-.607-1.153 0-.636.274-1.153.607-1.153h14.96c.335 0 .607.52.607 1.153 0 .636-.272 1.153-.607 1.153zM457.352 132.822h-5.933c-.335 0-.607-.52-.607-1.153 0-.636.275-1.153.607-1.153h5.933c.335 0 .607.52.607 1.153 0 .636-.272 1.153-.607 1.153z" fill="#E3EAFF"/><path d="M461.07 135.125h-26.58c-.369 0-.667.282-.667.63v1.044c0 .348.298.631.667.631h26.58c.369 0 .668-.283.668-.631v-1.044c0-.348-.299-.63-.668-.63z" fill="#FFC359"/><path d="M477.552 117.037h-17.828c-.456 0-.826.35-.826.781v.743c0 .431.37.781.826.781h17.828c.456 0 .827-.35.827-.781v-.743c0-.431-.371-.781-.827-.781z" fill="#FF56A9"/><path d="M449.39 119.342h-14.96c-.336 0-.607-.519-.607-1.152 0-.637.274-1.153.607-1.153h14.96c.335 0 .607.519.607 1.153 0 .636-.272 1.152-.607 1.152zM457.352 119.342h-5.933c-.335 0-.607-.519-.607-1.152 0-.637.275-1.153.607-1.153h5.933c.335 0 .607.519.607 1.153 0 .636-.272 1.152-.607 1.152z" fill="#FFC359"/><path d="M497.357 54.73c11.009 0 19.934-8.436 19.934-18.843s-8.925-18.843-19.934-18.843-19.934 8.436-19.934 18.843 8.925 18.843 19.934 18.843z" fill="#FF4DD1"/><path d="M495.912 34.12l-7.918 2.74 7.918 2.72v2.81l-11.318-4.068V35.4l11.318-4.065v2.785zM498.497 31.334l11.318 4.065v2.923l-11.318 4.069v-2.812l7.918-2.718-7.918-2.742v-2.785z" fill="#F9FBFC"/><path d="M377.633 370.551c9.888-6.333 12.473-19.044 5.774-28.391-6.7-9.347-20.147-11.791-30.035-5.458-9.888 6.333-12.473 19.044-5.773 28.391 6.699 9.347 20.146 11.791 30.034 5.458z" fill="#FFC240"/><path d="M376.918 352.442a9.18 9.18 0 01-.642 3.484 5.787 5.787 0 01-1.819 2.477 4.35 4.35 0 01-2.727.898 3.55 3.55 0 01-1.832-.467 2.74 2.74 0 01-1.145-1.236h-.225a4.763 4.763 0 01-1.712 1.277 5.026 5.026 0 01-2.133.426 5.386 5.386 0 01-2.108-.312 5.157 5.157 0 01-1.792-1.095 5.264 5.264 0 01-1.12-1.792 5.052 5.052 0 01-.308-2.061c-.037-.831.11-1.66.434-2.435a5.948 5.948 0 011.441-2.059 6.855 6.855 0 012.266-1.317 7.103 7.103 0 012.629-.388 17.9 17.9 0 012.647.218 14.96 14.96 0 012.384.519l-.321 6.462c0 1.225.354 1.838 1.063 1.838.595 0 1.07-.412 1.425-1.236a8.273 8.273 0 00.533-3.232 7.443 7.443 0 00-.937-3.762 6.201 6.201 0 00-2.636-2.49 8.476 8.476 0 00-3.881-.859 10.406 10.406 0 00-4.908 1.098 7.522 7.522 0 00-3.194 3.165 9.938 9.938 0 00-1.099 4.777 7.184 7.184 0 00.428 2.998c.354.961.91 1.846 1.635 2.599a8.197 8.197 0 002.78 1.55 8.528 8.528 0 003.199.4 18.908 18.908 0 003.257-.309 22.618 22.618 0 003.497-.906v2.539a17.708 17.708 0 01-6.644 1.202c-3.02.174-5.992-.774-8.283-2.643a9.552 9.552 0 01-2.319-3.374 9.124 9.124 0 01-.653-3.975 11.787 11.787 0 011.516-5.93c.989-1.753 2.488-3.202 4.32-4.175a13.367 13.367 0 016.454-1.513 12.249 12.249 0 015.493 1.189 8.72 8.72 0 013.733 3.375 9.663 9.663 0 011.304 5.075zm-14.32 1.654c0 1.859.802 2.788 2.406 2.788.369.021.738-.045 1.073-.191.336-.147.628-.37.85-.65a5.093 5.093 0 00.796-2.728l.181-2.921a8.11 8.11 0 00-1.609-.146 3.644 3.644 0 00-1.482.233c-.47.18-.892.455-1.237.806a3.938 3.938 0 00-.978 2.809z" fill="#fff"/><path d="M256.84 0H121.186c-2.64-.03-5.259.437-7.707 1.371a20.098 20.098 0 00-6.552 4.073 18.84 18.84 0 00-4.385 6.145 17.973 17.973 0 00-1.541 7.269c0 2.495.524 4.965 1.541 7.268a18.84 18.84 0 004.385 6.145 20.097 20.097 0 006.552 4.073c2.448.934 5.067 1.4 7.707 1.371h9.975l9.64 9.115 9.643-9.115H256.84c5.25-.058 10.264-2.07 13.955-5.6 3.691-3.53 5.761-8.294 5.761-13.258 0-4.963-2.07-9.726-5.761-13.256C267.104 2.07 262.09.058 256.84 0z" fill="#9570EE"/><path d="M218.024 24.869h-89.261a2.3 2.3 0 01-1.579-.618 2.053 2.053 0 01-.654-1.493c.001-.559.237-1.095.655-1.49a2.3 2.3 0 011.578-.618h89.261a2.3 2.3 0 011.576.618c.418.396.653.931.654 1.49 0 .56-.235 1.096-.653 1.492a2.3 2.3 0 01-1.577.619zM190.128 13.274H128.76c-.592 0-1.16-.222-1.579-.618a2.057 2.057 0 01-.654-1.492c.001-.56.237-1.096.655-1.491a2.302 2.302 0 011.578-.617h61.368a2.3 2.3 0 011.577.617c.418.395.653.932.653 1.49 0 .278-.057.552-.169.808a2.106 2.106 0 01-.483.685 2.262 2.262 0 01-.724.458c-.271.106-.561.16-.854.16z" fill="#fff"/><path d="M442.251 238.952s-1.661 4.655-2.579 7.472c0 0 8.136-.164 10.986-3.736l-3.034-6.875-5.373 3.139z" fill="#F7D3A9"/><path d="M441.029 367.334l.695 2.929 4.491.238-.948-3.588-4.238.421z" fill="#F79A74"/><path d="M441.724 370.252s-7.525 3.708-7.462 3.946c.063.239 12.711-1.015 12.711-1.015l-.758-2.689-4.491-.242z" fill="#544DB8"/><path d="M478.972 361.425l1.763 2.498 4.282-1.299-2.252-3.024-3.793 1.825z" fill="#F79A74"/><path d="M480.741 363.93s-5.609 6.018-5.46 6.231c.148.213 11.474-5.273 11.474-5.273l-1.733-2.253-4.281 1.295z" fill="#544DB8"/><path d="M432.68 289.915s-12.909 39.816 7.588 78.195h6.073s-12.142-43.4 3.035-78.553l-16.696.358z" fill="#FFC240"/><path d="M443.883 291.328s1.997 41.599 34.938 71.242l5.721-1.929s-26.864-37.024-25.062-74.955l-15.597 5.642z" fill="#FFC240"/><path d="M437.972 197.589l.017-2.453a1.16 1.16 0 00-.044-.32l-.494-1.755-1.481.356-1.51-1.316a1.303 1.303 0 00-.518-.278 1.344 1.344 0 00-1.138.205c-.16.117-.288.267-.374.439a13.091 13.091 0 00-1.164 3.056c-.031.18-.017.364.04.538.056.174.155.333.286.466l2.307 2.389a1.3 1.3 0 00.605.35c.232.061.477.06.708-.005l1.84-.519c.264-.073.497-.225.662-.433.166-.207.257-.46.258-.72z" fill="#F79A74"/><path d="M460.227 251.434s-16.828-17.046-17.934-23.428c-1.107-6.381-3.571-30.116-3.571-30.116l-5.188.948s-1.782 33.95-.206 37.858c1.577 3.907 11.692 23.833 18.283 25.674 6.592 1.84 11.22-4.302 8.616-10.936z" fill="#FF4F72"/><path d="M436.855 223.307s-3.799 11.943-1.393 14.946c2.406 3.004 11.261.283 14.691-4.533 3.43-4.815 4.12-15.647-1.716-16.55-5.837-.904-10.209 1.329-11.582 6.137z" fill="#F79A74"/><path d="M459.623 293.145s3.414-34.436 3.414-43.762c0-.425 0-.825-.017-1.228-.88-2.052-2.515-3.736-4.603-4.74a10.232 10.232 0 00-6.764-.727 83.102 83.102 0 00-12.332 3.827l-.027-.034a23.886 23.886 0 00-6.235 5.771c-5.473 12.58-5.877 26.62-1.137 39.462l27.701 1.431z" fill="#FF4F72"/><path d="M411.395 199.352l-.442-2.417a1.133 1.133 0 00-.102-.309l-.824-1.646-1.39.597-1.733-1.039a1.34 1.34 0 00-1.636.209c-.134.14-.232.308-.286.49a12.898 12.898 0 00-.577 3.201c.004.182.051.362.139.524.088.163.215.304.369.413l2.714 1.965a1.344 1.344 0 001.356.125l1.717-.812c.249-.117.452-.307.577-.541.125-.235.167-.501.118-.76z" fill="#F79A74"/><path d="M443.306 248.664s-19.733-13.988-22.01-20.087c-2.277-6.098-9.108-29.056-9.108-29.056l-4.943 1.794s4.554 33.719 6.83 37.305c2.277 3.585 15.93 21.522 22.769 22.239 6.838.716 10.255-6.096 6.462-12.195z" fill="#FF4F72"/><path d="M450.895 217.097s-10.118-4.063-14.928 4.305c-2.529 5.262 5.568.241 7.086 1.913 1.519 1.672-2.024 5.024-1.013 6.231 1.011 1.207 2.782-2.152 3.796-.239 1.013 1.913-1.519 2.152-3.296 4.304-1.777 2.153 1.519 5.26-1.011 7.174-2.529 1.913-9.613 3.349-5.312 13.632 4.301 10.284-7.085 12.911-2.276 27.022 4.809 14.11 37.44 22 43.509 5.26 6.07-16.741-14.166-20.804-12.908-28.218 1.258-7.415 5.817-9.326-.253-16.738-6.07-7.412-9.868-11.719-8.096-16.502.298-.864.395-1.78.282-2.684a6.048 6.048 0 00-.937-2.547 6.451 6.451 0 00-1.982-1.94 6.866 6.866 0 00-2.661-.973z" fill="#544DB8"/><path d="M478.491 159.28c-4.302 0-8.507 1.206-12.085 3.465-3.577 2.259-6.365 5.471-8.011 9.228a19.523 19.523 0 00-1.238 11.88c.839 3.989 2.911 7.652 5.953 10.528 3.042 2.876 6.918 4.834 11.138 5.627 4.219.794 8.593.387 12.567-1.17 3.975-1.556 7.372-4.192 9.762-7.573 2.391-3.381 3.666-7.357 3.666-11.423 0-5.454-2.291-10.684-6.371-14.54-4.079-3.856-9.612-6.022-15.381-6.022zm-10.986 18.952c.001-.497.157-.983.45-1.396a2.632 2.632 0 011.193-.924 2.804 2.804 0 011.536-.142c.516.097.989.337 1.361.688.371.352.624.8.727 1.287.102.488.049.993-.152 1.452a2.547 2.547 0 01-.979 1.127 2.77 2.77 0 01-1.477.424 2.803 2.803 0 01-1.019-.188 2.663 2.663 0 01-.866-.542 2.532 2.532 0 01-.581-.814 2.39 2.39 0 01-.206-.962l.013-.01zm10.986 12.823a7.157 7.157 0 01-4.546-1.613c-1.26-1.039-2.079-2.474-2.306-4.039h13.702c-.225 1.567-1.042 3.004-2.302 4.045a7.158 7.158 0 01-4.548 1.617v-.01zm8.339-10.307a2.77 2.77 0 01-1.477-.424 2.547 2.547 0 01-.979-1.127 2.376 2.376 0 01-.152-1.452c.102-.487.355-.935.727-1.287a2.71 2.71 0 011.36-.688 2.803 2.803 0 011.536.142c.486.19.901.511 1.194.924a2.417 2.417 0 01.251 2.362 2.507 2.507 0 01-.576.819 2.66 2.66 0 01-.864.548c-.323.128-.67.193-1.02.193v-.01z" fill="#FEC800"/><path d="M155.36 326.096l-1.274-2.407 34.484-16.299 43.502.673 47.239-16.818h36.078l38.522-12.138.313.032 30.89 3.32 17.415-8.567 1.313 2.386-18.182 8.938-.434-.044-31.01-3.333-38.596 12.085h-36.042l-46.998 16.828h-.275l-43.078-.667-33.867 16.011z" fill="#F9FBFC"/><path d="M281.92 261.515s34.186 52.322 29.901 88.718l23.257.457-9.967-5.452 2.849-.455s-8.545-56.415-16.614-76.434c-8.451-20.967-10.914-13.194-10.914-13.194l-18.512 6.36z" fill="#544DB8"/><path d="M269.58 258.268s1.898 36.346-.947 50.249c-2.845 13.903-11.392 41.28-11.392 41.28l21.831.449-5.734-3.827-3.639-2.007s15.545-39.48 16.967-58.323a234.273 234.273 0 013.799-29.597l-20.885 1.776z" fill="#544DB8"/><path d="M314.255 150.704l3.57-2.354 1.601-5.554-1.779-.337-1.069 2.02 1.069-9.591-1.78.338-1.78 9.253-2.137 4.374 1.959 1.179M335.315 160.687l.475-4.037 5.218-4.933 1.187 1.558-1.898 2.019 9.967-2.243v2.02l-9.256 3.375-1.898 3.142-3.795-.901z" fill="#F7D3A9"/><path d="M311.783 147.309s-40.53 46.497-45.251 55.797c0 0-1.969 3.347-1.969 13.017 0 9.671 3.543 45.382 3.543 45.382l41.318 2.233s-13.381-43.523-13.774-44.637c-3.366-4.303-8.029-7.545-13.378-9.299l34.627-59.144-5.116-3.349z" fill="#6DB8FF"/><path d="M286.12 205.31s1.722 4.827 2.672 7.747c0 0-8.434-.168-11.403-3.873l3.147-7.129 5.584 3.255z" fill="#F7D3A9"/><path d="M292.533 190.219s2.494 13.733 0 16.854c-2.494 3.121-11.047-2.186-14.609-7.178-3.562-4.993-4.276-16.229 1.78-17.167a11.753 11.753 0 017.947 1.4c2.372 1.385 4.113 3.557 4.882 6.091z" fill="#F7D3A9"/><path d="M288.699 215.638s32.493-19.321 35.116-23.285c2.623-3.965 9.956-33.442 9.956-33.442l6.29 1.485s-3.67 32.948-4.716 36.417c-1.047 3.468-33.021 35.669-40.357 35.669-7.336 0-9.959-8.915-6.289-16.844z" fill="#6DB8FF"/><path d="M290.226 187.158s1.648-5.385-1.898-8.077a11.875 11.875 0 00-5.162-1.928 12.113 12.113 0 00-5.516.583c0 1.558 3.795 2.466 2.848 3.375-.948.909-5.933 0-7.119 4.71-1.187 4.709.472 5.61.472 5.61a5.353 5.353 0 00-1.053 3.555 5.425 5.425 0 001.528 3.398c3.087 4.037 10.058 7.368 11.794 6.937 1.735-.431.785-6.712.785-6.712s-4.034-.449-4.273-2.918c-.239-2.469 1.9-2.692 2.848-1.794.947.899 1.186 2.916 1.9 2.467.714-.449-.239-5.159-.239-5.159a9.49 9.49 0 003.085-4.047z" fill="#544DB8"/><path d="M309.352 324.595l-24.402 6.33c-3.231.847-5.975 2.868-7.634 5.622-1.66 2.754-2.098 6.016-1.221 9.075l4.617 15.907c.896 3.054 3.034 5.649 5.947 7.218 2.913 1.569 6.365 1.984 9.601 1.155l7.319-1.898 7.204 6.729 2.563-9.263 7.316-1.898c3.231-.846 5.976-2.868 7.635-5.621 1.66-2.754 2.098-6.017 1.22-9.076l-4.622-15.909c-.898-3.052-3.036-5.645-5.947-7.213a13.345 13.345 0 00-9.596-1.158z" fill="#9570EE"/><path d="M293.206 350.666a2.511 2.511 0 01-.044 1.536 2.654 2.654 0 01-.938 1.253 2.932 2.932 0 01-3.101.21 2.698 2.698 0 01-1.118-1.114 2.514 2.514 0 01-.275-1.513 2.573 2.573 0 01.66-1.403 2.83 2.83 0 011.374-.82 2.964 2.964 0 011.09-.074 2.91 2.91 0 011.037.326c.319.172.6.401.826.676.225.274.391.588.489.923zM305.504 347.478a2.504 2.504 0 01-.043 1.536 2.657 2.657 0 01-.938 1.254 2.894 2.894 0 01-1.518.549 2.922 2.922 0 01-1.584-.339 2.718 2.718 0 01-1.118-1.115 2.518 2.518 0 01-.274-1.514c.069-.52.299-1.008.662-1.403a2.815 2.815 0 011.375-.819 2.946 2.946 0 012.125.253 2.673 2.673 0 011.313 1.598zM317.803 344.29c.146.505.13 1.039-.045 1.535a2.647 2.647 0 01-.939 1.253 2.933 2.933 0 01-3.102.208 2.715 2.715 0 01-1.117-1.115 2.525 2.525 0 01-.273-1.514 2.58 2.58 0 01.662-1.402c.363-.396.842-.68 1.375-.819a2.986 2.986 0 011.09-.073 2.92 2.92 0 011.036.327c.319.172.6.402.825.677.225.274.391.588.488.923z" fill="#fff"/><path d="M188.661 312.331c2.491 0 4.51-1.909 4.51-4.263s-2.019-4.263-4.51-4.263c-2.491 0-4.51 1.909-4.51 4.263s2.019 4.263 4.51 4.263z" fill="#FFC240"/><path d="M354.301 284.964c2.491 0 4.51-1.908 4.51-4.263 0-2.354-2.019-4.263-4.51-4.263-2.491 0-4.51 1.909-4.51 4.263 0 2.355 2.019 4.263 4.51 4.263z" fill="#FF4F72"/></svg>