<svg id="logo" viewBox="0 0 218 60" xmlns="http://www.w3.org/2000/svg"> 
  <path d="M88.644 18.596C91.1827 18.596 93.18 19.2027 94.636 20.416C96.092 21.6293 96.82 23.3 96.82 25.428C96.82 27.556 96.092 29.2267 94.636 30.44C93.18 31.6533 91.1827 32.26 88.644 32.26H83.8V38.196H81V18.596H88.644ZM88.56 29.824C90.3333 29.824 91.6867 29.4507 92.62 28.704C93.5533 27.9387 94.02 26.8467 94.02 25.428C94.02 24.0093 93.5533 22.9267 92.62 22.18C91.6867 21.4147 90.3333 21.032 88.56 21.032H83.8V29.824H88.56Z" fill="#405063"/>
  <path d="M102.872 25.848C103.338 24.9893 104.029 24.336 104.943 23.888C105.858 23.44 106.969 23.216 108.275 23.216V25.82C108.126 25.8013 107.921 25.792 107.66 25.792C106.204 25.792 105.056 26.2307 104.215 27.108C103.394 27.9667 102.983 29.1987 102.983 30.804V38.196H100.295V23.356H102.872V25.848Z" fill="#405063"/>
  <path d="M117.808 38.364C116.333 38.364 115.008 38.0373 113.832 37.384C112.656 36.7307 111.732 35.8347 111.06 34.696C110.406 33.5387 110.08 32.232 110.08 30.776C110.08 29.32 110.406 28.0227 111.06 26.884C111.732 25.7267 112.656 24.8307 113.832 24.196C115.008 23.5427 116.333 23.216 117.808 23.216C119.282 23.216 120.598 23.5427 121.756 24.196C122.932 24.8307 123.846 25.7267 124.5 26.884C125.172 28.0227 125.508 29.32 125.508 30.776C125.508 32.232 125.172 33.5387 124.5 34.696C123.846 35.8347 122.932 36.7307 121.756 37.384C120.598 38.0373 119.282 38.364 117.808 38.364ZM117.808 36.012C118.76 36.012 119.609 35.7973 120.356 35.368C121.121 34.92 121.718 34.304 122.148 33.52C122.577 32.7173 122.792 31.8027 122.792 30.776C122.792 29.7493 122.577 28.844 122.148 28.06C121.718 27.2573 121.121 26.6413 120.356 26.212C119.609 25.7827 118.76 25.568 117.808 25.568C116.856 25.568 115.997 25.7827 115.232 26.212C114.485 26.6413 113.888 27.2573 113.44 28.06C113.01 28.844 112.796 29.7493 112.796 30.776C112.796 31.8027 113.01 32.7173 113.44 33.52C113.888 34.304 114.485 34.92 115.232 35.368C115.997 35.7973 116.856 36.012 117.808 36.012Z" fill="#405063"/>
  <path d="M127.321 43.796C126.668 43.796 126.061 43.7213 125.501 43.572C124.941 43.4227 124.475 43.1987 124.101 42.9L124.969 40.828C125.529 41.2947 126.257 41.528 127.153 41.528C127.863 41.528 128.404 41.304 128.777 40.856C129.169 40.4267 129.365 39.7827 129.365 38.924V23.356H132.053V38.868C132.053 40.3987 131.643 41.6027 130.821 42.48C130 43.3573 128.833 43.796 127.321 43.796ZM130.709 20.5C130.187 20.5 129.748 20.332 129.393 19.996C129.057 19.66 128.889 19.2493 128.889 18.764C128.889 18.2787 129.057 17.868 129.393 17.532C129.748 17.1773 130.187 17 130.709 17C131.232 17 131.661 17.168 131.997 17.504C132.352 17.8213 132.529 18.2227 132.529 18.708C132.529 19.212 132.352 19.6413 131.997 19.996C131.661 20.332 131.232 20.5 130.709 20.5Z" fill="#405063"/>
  <path d="M150.594 30.86C150.594 31.0653 150.576 31.336 150.538 31.672H138.498C138.666 32.9787 139.236 34.0333 140.206 34.836C141.196 35.62 142.418 36.012 143.874 36.012C145.648 36.012 147.076 35.4147 148.158 34.22L149.642 35.956C148.97 36.74 148.13 37.3373 147.122 37.748C146.133 38.1587 145.022 38.364 143.79 38.364C142.222 38.364 140.832 38.0467 139.618 37.412C138.405 36.7587 137.462 35.8533 136.79 34.696C136.137 33.5387 135.81 32.232 135.81 30.776C135.81 29.3387 136.128 28.0413 136.762 26.884C137.416 25.7267 138.302 24.8307 139.422 24.196C140.561 23.5427 141.84 23.216 143.258 23.216C144.677 23.216 145.937 23.5427 147.038 24.196C148.158 24.8307 149.026 25.7267 149.642 26.884C150.277 28.0413 150.594 29.3667 150.594 30.86ZM143.258 25.484C141.97 25.484 140.888 25.876 140.01 26.66C139.152 27.444 138.648 28.4707 138.498 29.74H148.018C147.869 28.4893 147.356 27.472 146.478 26.688C145.62 25.8853 144.546 25.484 143.258 25.484Z" fill="#405063"/>
  <path d="M160.795 38.364C159.283 38.364 157.929 38.0373 156.735 37.384C155.559 36.7307 154.635 35.8347 153.963 34.696C153.291 33.5387 152.955 32.232 152.955 30.776C152.955 29.32 153.291 28.0227 153.963 26.884C154.635 25.7267 155.559 24.8307 156.735 24.196C157.929 23.5427 159.283 23.216 160.795 23.216C162.139 23.216 163.333 23.4867 164.379 24.028C165.443 24.5693 166.264 25.3533 166.843 26.38L164.799 27.696C164.332 26.9867 163.753 26.4547 163.063 26.1C162.372 25.7453 161.607 25.568 160.767 25.568C159.796 25.568 158.919 25.7827 158.135 26.212C157.369 26.6413 156.763 27.2573 156.315 28.06C155.885 28.844 155.671 29.7493 155.671 30.776C155.671 31.8213 155.885 32.7453 156.315 33.548C156.763 34.332 157.369 34.9387 158.135 35.368C158.919 35.7973 159.796 36.012 160.767 36.012C161.607 36.012 162.372 35.8347 163.063 35.48C163.753 35.1253 164.332 34.5933 164.799 33.884L166.843 35.172C166.264 36.1987 165.443 36.992 164.379 37.552C163.333 38.0933 162.139 38.364 160.795 38.364Z" fill="#405063"/>
  <path d="M178.858 37.328C178.466 37.664 177.981 37.9253 177.402 38.112C176.824 38.28 176.226 38.364 175.61 38.364C174.117 38.364 172.96 37.9627 172.138 37.16C171.317 36.3573 170.906 35.2093 170.906 33.716V25.568H168.386V23.356H170.906V20.108H173.594V23.356H177.85V25.568H173.594V33.604C173.594 34.4067 173.79 35.0227 174.182 35.452C174.593 35.8813 175.172 36.096 175.918 36.096C176.74 36.096 177.44 35.8627 178.018 35.396L178.858 37.328Z" fill="#405063"/>
  <path d="M206.876 18.596V38.196H204.58L192.82 23.58V38.196H190.02V18.596H192.316L204.076 33.212V18.596H206.876Z" fill="#405063"/>
  <path d="M217.222 18.596V38.196H214.45V21.032H210.026V18.596H217.222Z" fill="#405063"/>
  <circle cx="30" cy="30" r="30" fill="#4992e6"/>
  <path d="M32.904 18.6V41H29.48L17.128 25.832V41H13V18.6H16.424L28.776 33.768V18.6H32.904Z" fill="#fff"/>
  <path d="M43 18.5H47.5V41H43V18.5Z" fill="#fff"/>
  <path d="M41.492 18.5V24H35.992L41.492 18.5Z" fill="#9bebff"/>
</svg>
