<svg id="error-404" viewBox="0 0 132 132" xmlns="http://www.w3.org/2000/svg"><path d="M21.927 60.764a1.22 1.22 0 00-.198-.374 4.583 4.583 0 00-.264-.352l-.33-.264a1.665 1.665 0 00-.396-.198 1.4 1.4 0 00-.396-.132 2.182 2.182 0 00-2.464 2.992c.111.267.268.511.462.726.422.402.98.63 1.562.638.148-.003.295-.019.44-.044a1.4 1.4 0 00.396-.132c.14-.048.274-.114.397-.198l.329-.264c.194-.215.35-.46.462-.726.123-.26.183-.547.176-.836a3.051 3.051 0 00-.044-.44 1.412 1.412 0 00-.132-.396zM30.727 60.764a1.217 1.217 0 00-.198-.374 4.531 4.531 0 00-.264-.352l-.33-.264a1.663 1.663 0 00-.396-.198 1.4 1.4 0 00-.396-.132 2.183 2.183 0 00-2.463 2.992c.11.267.268.511.46.726.423.402.98.63 1.563.638.148-.003.295-.019.44-.044a1.4 1.4 0 00.396-.132 1.66 1.66 0 00.396-.198l.33-.264c.194-.215.35-.46.462-.726a1.84 1.84 0 00.176-.836 2.916 2.916 0 00-.044-.44 1.412 1.412 0 00-.132-.396zM39.527 60.764a1.236 1.236 0 00-.197-.374 4.802 4.802 0 00-.265-.352l-.33-.264a1.675 1.675 0 00-.395-.198 1.417 1.417 0 00-.397-.132 2.183 2.183 0 00-2.464 2.992c.112.267.268.511.462.726.422.402.98.63 1.562.638.148-.003.295-.019.44-.044.138-.024.272-.068.397-.132.14-.048.272-.114.395-.198l.33-.264c.194-.215.35-.46.462-.726.124-.26.184-.547.176-.836a2.916 2.916 0 00-.044-.44 1.377 1.377 0 00-.132-.396z" fill="#489aff"/><path d="M72.703 0h-13.2a4.4 4.4 0 00-4.4 4.4v4.25a30.666 30.666 0 00-19.8 28.75v2.2a6.6 6.6 0 00-6.6 6.6v4.4h-11c-6.072.007-10.993 4.928-11 11V121c.007 6.072 4.928 10.993 11 11h96.8c6.073-.007 10.993-4.928 11-11V61.6c-.007-6.072-4.927-10.993-11-11h-11v-4.4a6.6 6.6 0 00-6.6-6.6v-2.2a30.666 30.666 0 00-19.8-28.75V4.4a4.4 4.4 0 00-4.4-4.4zm-13.2 4.4h13.2v24.2a2.2 2.2 0 01-2.2 2.2h-8.8a2.2 2.2 0 01-2.2-2.2V4.4zM45.905 28.6h-4.692a26.254 26.254 0 013.56-6.796l1.132 6.796zm68.598 99h-96.8a6.6 6.6 0 01-6.6-6.6V72.6h110V121a6.6 6.6 0 01-6.6 6.6zm6.6-66v6.6h-110v-6.6a6.6 6.6 0 016.6-6.6h96.8a6.6 6.6 0 016.6 6.6zm-22-15.4v4.4h-66v-4.4a2.2 2.2 0 012.2-2.2h61.6a2.2 2.2 0 012.2 2.2zm-11.66-24.396a26.235 26.235 0 013.55 6.796h-4.691l1.14-6.796zM83.66 17.67l-2.127 12.76a2.203 2.203 0 002.17 2.57h8.43a26.73 26.73 0 01.37 4.4v2.2h-52.8v-2.2c0-1.474.124-2.946.369-4.4h8.43a2.2 2.2 0 002.17-2.563l-2.128-12.76a26.21 26.21 0 016.558-4.257V28.6a6.6 6.6 0 006.6 6.6h8.8a6.6 6.6 0 006.6-6.6V13.42a26.252 26.252 0 016.558 4.25z" fill="#489aff"/><path d="M48.503 107.8h-2.2v-4.4a2.2 2.2 0 00-4.4 0v4.4h-9.261l15.536-25.248a2.199 2.199 0 00-1.784-3.453 2.2 2.2 0 00-1.957 1.148l-17.6 28.6a2.198 2.198 0 001.866 3.353h13.2v4.4a2.2 2.2 0 104.4 0v-4.4h2.2a2.2 2.2 0 100-4.4zM103.503 107.8h-2.2v-4.4a2.2 2.2 0 00-4.4 0v4.4h-9.262l15.536-25.248a2.199 2.199 0 00-3.74-2.305l-17.6 28.6a2.201 2.201 0 001.866 3.353h13.2v4.4a2.2 2.2 0 104.4 0v-4.4h2.2a2.2 2.2 0 000-4.4zM70.503 79.2h-8.8a6.6 6.6 0 00-6.6 6.6v26.4a6.6 6.6 0 006.6 6.6h8.8a6.6 6.6 0 006.6-6.6V85.8a6.6 6.6 0 00-6.6-6.6zm2.2 33a2.2 2.2 0 01-2.2 2.2h-8.8a2.2 2.2 0 01-2.2-2.2V85.8a2.2 2.2 0 012.2-2.2h8.8a2.2 2.2 0 012.2 2.2v26.4z" fill="#489aff"/></svg>