<svg xmlns="http://www.w3.org/2000/svg"><symbol viewBox="0 0 22 16" id="icon-arrow-left" xmlns="http://www.w3.org/2000/svg"><path d="M7.325 15.243a1.056 1.056 0 001.5-1.486L4.052 8.984H20.71a1.046 1.046 0 001.051-1.051 1.057 1.057 0 00-1.051-1.066H4.053l4.773-4.759a1.077 1.077 0 000-1.5 1.051 1.051 0 00-1.5 0L.751 7.182a1.034 1.034 0 000 1.486l6.574 6.575z" fill="currentColor"/></symbol><symbol viewBox="0 0 22 16" id="icon-arrow-right" xmlns="http://www.w3.org/2000/svg"><path d="M14.872.305a1.056 1.056 0 00-1.5 1.486l4.773 4.773H1.487A1.046 1.046 0 00.436 7.616a1.057 1.057 0 001.051 1.066h16.657l-4.773 4.76a1.077 1.077 0 000 1.5 1.051 1.051 0 001.5 0l6.575-6.576a1.034 1.034 0 000-1.486L14.872.305z" fill="currentColor"/></symbol><symbol viewBox="0 0 16 12" id="icon-check" xmlns="http://www.w3.org/2000/svg"><path d="M15.766.36a.8.8 0 00-1.132 0L5.05 9.943 1.366 6.26A.8.8 0 00.234 7.39l4.25 4.25a.8.8 0 001.131 0l10.15-10.15a.8.8 0 000-1.132z" fill="currentColor"/></symbol><symbol viewBox="0 0 20 20" id="icon-hearth" xmlns="http://www.w3.org/2000/svg"><path d="M19.967 6.247C19.675 3.034 17.4.703 14.554.703c-1.896 0-3.632 1.02-4.61 2.656C8.978 1.702 7.313.702 5.447.702 2.6.702.325 3.034.033 6.247c-.023.142-.117.889.17 2.107.415 1.757 1.373 3.355 2.77 4.62l6.967 6.324 7.088-6.323c1.396-1.266 2.354-2.864 2.769-4.621.287-1.218.193-1.965.17-2.107z" fill="#currentColor"/></symbol><symbol viewBox="0 0 477.867 477.867" id="icon-infinity" xmlns="http://www.w3.org/2000/svg"><path d="M375.467 136.533c-53.333 0-110.933 51.661-136.533 77.534-25.6-25.873-83.2-77.534-136.533-77.534-64.119 0-102.4 38.281-102.4 102.4s38.281 102.4 102.4 102.4c53.333 0 110.933-51.661 136.533-77.534 25.6 25.873 83.2 77.534 136.533 77.534 64.12 0 102.4-38.281 102.4-102.4s-38.281-102.4-102.4-102.4zM102.4 307.2c-45.295 0-68.267-22.972-68.267-68.267s22.972-68.267 68.267-68.267c37.547 0 87.381 42.308 113.118 68.267C189.833 264.926 140.1 307.2 102.4 307.2zm273.067 0c-37.547 0-87.381-42.308-113.118-68.267 25.6-25.975 75.418-68.267 113.118-68.267 45.295 0 68.267 22.972 68.267 68.267S420.762 307.2 375.467 307.2z"/></symbol><symbol fill="none" viewBox="0 0 18 19" id="icon-plus" xmlns="http://www.w3.org/2000/svg"><path d="M9 .001l-.016 18M18 9H0" stroke="#000" stroke-width="2"/></symbol></svg>