<svg id="logo" viewBox="0 0 218 60" xmlns="http://www.w3.org/2000/svg"><path d="M88.644 18.596c2.539 0 4.536.607 5.992 1.82 1.456 1.213 2.184 2.884 2.184 5.012 0 2.128-.728 3.799-2.184 5.012-1.456 1.213-3.453 1.82-5.992 1.82H83.8v5.936H81v-19.6h7.644zm-.084 11.228c1.773 0 3.127-.373 4.06-1.12.933-.765 1.4-1.857 1.4-3.276 0-1.419-.467-2.501-1.4-3.248-.933-.765-2.287-1.148-4.06-1.148H83.8v8.792h4.76zM102.872 25.848c.466-.859 1.157-1.512 2.071-1.96.915-.448 2.026-.672 3.332-.672v2.604a5.221 5.221 0 00-.615-.028c-1.456 0-2.604.439-3.445 1.316-.821.859-1.232 2.09-1.232 3.696v7.392h-2.688v-14.84h2.577v2.492zM117.808 38.364c-1.475 0-2.8-.327-3.976-.98a7.237 7.237 0 01-2.772-2.688c-.654-1.157-.98-2.464-.98-3.92s.326-2.753.98-3.892a6.981 6.981 0 012.772-2.688c1.176-.653 2.501-.98 3.976-.98 1.474 0 2.79.327 3.948.98a6.797 6.797 0 012.744 2.688c.672 1.139 1.008 2.436 1.008 3.892s-.336 2.763-1.008 3.92a7.04 7.04 0 01-2.744 2.688c-1.158.653-2.474.98-3.948.98zm0-2.352c.952 0 1.801-.215 2.548-.644a4.745 4.745 0 001.792-1.848c.429-.803.644-1.717.644-2.744 0-1.027-.215-1.932-.644-2.716a4.507 4.507 0 00-1.792-1.848c-.747-.43-1.596-.644-2.548-.644s-1.811.215-2.576.644c-.747.43-1.344 1.045-1.792 1.848-.43.784-.644 1.69-.644 2.716 0 1.027.214 1.941.644 2.744a5.008 5.008 0 001.792 1.848c.765.43 1.624.644 2.576.644zM127.321 43.796c-.653 0-1.26-.075-1.82-.224-.56-.15-1.026-.373-1.4-.672l.868-2.072c.56.467 1.288.7 2.184.7.71 0 1.251-.224 1.624-.672.392-.43.588-1.073.588-1.932V23.356h2.688v15.512c0 1.53-.41 2.735-1.232 3.612-.821.877-1.988 1.316-3.5 1.316zm3.388-23.296c-.522 0-.961-.168-1.316-.504a1.676 1.676 0 01-.504-1.232c0-.485.168-.896.504-1.232a1.789 1.789 0 011.316-.532c.523 0 .952.168 1.288.504.355.317.532.719.532 1.204 0 .504-.177.933-.532 1.288-.336.336-.765.504-1.288.504zM150.594 30.86c0 .205-.018.476-.056.812h-12.04c.168 1.307.738 2.361 1.708 3.164.99.784 2.212 1.176 3.668 1.176 1.774 0 3.202-.597 4.284-1.792l1.484 1.736a6.48 6.48 0 01-2.52 1.792c-.989.41-2.1.616-3.332.616-1.568 0-2.958-.317-4.172-.952-1.213-.653-2.156-1.559-2.828-2.716-.653-1.157-.98-2.464-.98-3.92 0-1.437.318-2.735.952-3.892.654-1.157 1.54-2.053 2.66-2.688 1.139-.653 2.418-.98 3.836-.98 1.419 0 2.679.327 3.78.98a6.57 6.57 0 012.604 2.688c.635 1.157.952 2.483.952 3.976zm-7.336-5.376c-1.288 0-2.37.392-3.248 1.176-.858.784-1.362 1.81-1.512 3.08h9.52c-.149-1.25-.662-2.268-1.54-3.052-.858-.803-1.932-1.204-3.22-1.204zM160.795 38.364c-1.512 0-2.866-.327-4.06-.98a7.237 7.237 0 01-2.772-2.688c-.672-1.157-1.008-2.464-1.008-3.92s.336-2.753 1.008-3.892a6.981 6.981 0 012.772-2.688c1.194-.653 2.548-.98 4.06-.98 1.344 0 2.538.27 3.584.812a5.767 5.767 0 012.464 2.352l-2.044 1.316c-.467-.71-1.046-1.241-1.736-1.596-.691-.355-1.456-.532-2.296-.532-.971 0-1.848.215-2.632.644a4.68 4.68 0 00-1.82 1.848c-.43.784-.644 1.69-.644 2.716 0 1.045.214 1.97.644 2.772a4.731 4.731 0 001.82 1.82c.784.43 1.661.644 2.632.644.84 0 1.605-.177 2.296-.532.69-.355 1.269-.887 1.736-1.596l2.044 1.288a5.942 5.942 0 01-2.464 2.38c-1.046.541-2.24.812-3.584.812zM178.858 37.328c-.392.336-.877.597-1.456.784a6.391 6.391 0 01-1.792.252c-1.493 0-2.65-.401-3.472-1.204-.821-.803-1.232-1.95-1.232-3.444v-8.148h-2.52v-2.212h2.52v-3.248h2.688v3.248h4.256v2.212h-4.256v8.036c0 .803.196 1.419.588 1.848.411.43.99.644 1.736.644.822 0 1.522-.233 2.1-.7l.84 1.932zM206.876 18.596v19.6h-2.296L192.82 23.58v14.616h-2.8v-19.6h2.296l11.76 14.616V18.596h2.8zM217.222 18.596v19.6h-2.772V21.032h-4.424v-2.436h7.196z" fill="#405063"/><circle cx="30" cy="30" r="30" fill="#4992e6"/><path d="M32.904 18.6V41H29.48L17.128 25.832V41H13V18.6h3.424l12.352 15.168V18.6h4.128zM43 18.5h4.5V41H43V18.5z" fill="#fff"/><path d="M41.492 18.5V24h-5.5l5.5-5.5z" fill="#9bebff"/></svg>