<svg id="logo" viewBox="0 0 219 60" xmlns="http://www.w3.org/2000/svg"><path d="M88.584 11.4c2.539 0 4.536.607 5.992 1.82 1.456 1.213 2.184 2.884 2.184 5.012 0 2.128-.728 3.799-2.184 5.012-1.456 1.213-3.453 1.82-5.992 1.82H83.74V31h-2.8V11.4h7.644zM88.5 22.628c1.773 0 3.127-.373 4.06-1.12.933-.765 1.4-1.857 1.4-3.276 0-1.419-.467-2.501-1.4-3.248-.933-.765-2.287-1.148-4.06-1.148h-4.76v8.792h4.76zM102.812 18.652c.466-.859 1.157-1.512 2.072-1.96.914-.448 2.025-.672 3.332-.672v2.604a5.252 5.252 0 00-.616-.028c-1.456 0-2.604.439-3.444 1.316-.822.859-1.232 2.09-1.232 3.696V31h-2.688V16.16h2.576v2.492zM117.748 31.168c-1.475 0-2.8-.327-3.976-.98A7.237 7.237 0 01111 27.5c-.654-1.157-.98-2.464-.98-3.92s.326-2.753.98-3.892A6.981 6.981 0 01113.772 17c1.176-.653 2.501-.98 3.976-.98 1.474 0 2.79.327 3.948.98a6.797 6.797 0 012.744 2.688c.672 1.139 1.008 2.436 1.008 3.892s-.336 2.763-1.008 3.92a7.04 7.04 0 01-2.744 2.688c-1.158.653-2.474.98-3.948.98zm0-2.352c.952 0 1.801-.215 2.548-.644a4.745 4.745 0 001.792-1.848c.429-.803.644-1.717.644-2.744 0-1.027-.215-1.932-.644-2.716a4.507 4.507 0 00-1.792-1.848c-.747-.43-1.596-.644-2.548-.644s-1.811.215-2.576.644c-.747.43-1.344 1.045-1.792 1.848-.43.784-.644 1.69-.644 2.716 0 1.027.214 1.941.644 2.744a5.008 5.008 0 001.792 1.848c.765.43 1.624.644 2.576.644zM127.261 36.6c-.653 0-1.26-.075-1.82-.224-.56-.15-1.026-.373-1.4-.672l.868-2.072c.56.467 1.288.7 2.184.7.71 0 1.251-.224 1.624-.672.392-.43.588-1.073.588-1.932V16.16h2.688v15.512c0 1.53-.41 2.735-1.232 3.612-.821.877-1.988 1.316-3.5 1.316zm3.388-23.296c-.522 0-.961-.168-1.316-.504a1.676 1.676 0 01-.504-1.232c0-.485.168-.896.504-1.232a1.79 1.79 0 011.316-.532c.523 0 .952.168 1.288.504.355.317.532.719.532 1.204 0 .504-.177.933-.532 1.288-.336.336-.765.504-1.288.504zM150.534 23.664c0 .205-.018.476-.056.812h-12.04c.168 1.307.738 2.361 1.708 3.164.99.784 2.212 1.176 3.668 1.176 1.774 0 3.202-.597 4.284-1.792l1.484 1.736a6.48 6.48 0 01-2.52 1.792c-.989.41-2.1.616-3.332.616-1.568 0-2.958-.317-4.172-.952-1.213-.653-2.156-1.559-2.828-2.716-.653-1.157-.98-2.464-.98-3.92 0-1.437.318-2.735.952-3.892.654-1.157 1.54-2.053 2.66-2.688 1.139-.653 2.418-.98 3.836-.98 1.419 0 2.679.327 3.78.98a6.57 6.57 0 012.604 2.688c.635 1.157.952 2.483.952 3.976zm-7.336-5.376c-1.288 0-2.37.392-3.248 1.176-.858.784-1.362 1.81-1.512 3.08h9.52c-.149-1.25-.662-2.268-1.54-3.052-.858-.803-1.932-1.204-3.22-1.204zM160.735 31.168c-1.512 0-2.866-.327-4.06-.98a7.237 7.237 0 01-2.772-2.688c-.672-1.157-1.008-2.464-1.008-3.92s.336-2.753 1.008-3.892A6.981 6.981 0 01156.675 17c1.194-.653 2.548-.98 4.06-.98 1.344 0 2.538.27 3.584.812a5.767 5.767 0 012.464 2.352l-2.044 1.316c-.467-.71-1.046-1.241-1.736-1.596-.691-.355-1.456-.532-2.296-.532-.971 0-1.848.215-2.632.644a4.68 4.68 0 00-1.82 1.848c-.43.784-.644 1.69-.644 2.716 0 1.045.214 1.97.644 2.772a4.731 4.731 0 001.82 1.82c.784.43 1.661.644 2.632.644.84 0 1.605-.177 2.296-.532.69-.355 1.269-.887 1.736-1.596l2.044 1.288a5.942 5.942 0 01-2.464 2.38c-1.046.541-2.24.812-3.584.812zM178.798 30.132c-.392.336-.877.597-1.456.784a6.391 6.391 0 01-1.792.252c-1.493 0-2.65-.401-3.472-1.204-.821-.803-1.232-1.95-1.232-3.444v-8.148h-2.52V16.16h2.52v-3.248h2.688v3.248h4.256v2.212h-4.256v8.036c0 .803.196 1.419.588 1.848.411.43.99.644 1.736.644.822 0 1.522-.233 2.1-.7l.84 1.932zM206.816 11.4V31h-2.296l-11.76-14.616V31h-2.8V11.4h2.296l11.76 14.616V11.4h2.8zM217.162 11.4V31h-2.772V13.836h-4.424V11.4h7.196zM87.492 44.688l-3.156 7.068c-.256.592-.552 1.012-.888 1.26-.336.248-.74.372-1.212.372-.304 0-.588-.048-.852-.144a1.846 1.846 0 01-.684-.432l.396-.636c.32.32.704.48 1.152.48.288 0 .532-.08.732-.24.208-.16.4-.432.576-.816l.276-.612-2.82-6.3h.888l2.376 5.364 2.376-5.364h.84zM91.456 51.06a3.319 3.319 0 01-1.644-.408A3.063 3.063 0 0188.66 49.5a3.267 3.267 0 01-.42-1.656c0-.616.14-1.168.42-1.656.28-.488.664-.868 1.152-1.14a3.319 3.319 0 011.644-.408c.608 0 1.156.136 1.644.408.488.272.868.652 1.14 1.14.28.488.42 1.04.42 1.656 0 .616-.14 1.168-.42 1.656a2.976 2.976 0 01-1.14 1.152 3.319 3.319 0 01-1.644.408zm0-.756c.448 0 .848-.1 1.2-.3.36-.208.64-.5.84-.876.2-.376.3-.804.3-1.284s-.1-.908-.3-1.284c-.2-.376-.48-.664-.84-.864a2.314 2.314 0 00-1.2-.312c-.448 0-.852.104-1.212.312-.352.2-.632.488-.84.864-.2.376-.3.804-.3 1.284s.1.908.3 1.284c.208.376.488.668.84.876.36.2.764.3 1.212.3zM102.448 44.688V51h-.816v-1.152a2.379 2.379 0 01-.924.9c-.392.208-.84.312-1.344.312-.824 0-1.476-.228-1.956-.684-.472-.464-.708-1.14-.708-2.028v-3.66h.852v3.576c0 .664.164 1.168.492 1.512.328.344.796.516 1.404.516.664 0 1.188-.2 1.572-.6.384-.408.576-.972.576-1.692v-3.312h.852zM106.01 45.924c.2-.424.496-.744.888-.96.4-.216.892-.324 1.476-.324v.828l-.204-.012c-.664 0-1.184.204-1.56.612-.376.408-.564.98-.564 1.716V51h-.852v-6.312h.816v1.236zM117.123 44.64c.592 0 1.128.136 1.608.408.48.264.856.64 1.128 1.128.272.488.408 1.044.408 1.668 0 .624-.136 1.18-.408 1.668a2.916 2.916 0 01-1.128 1.14 3.204 3.204 0 01-1.608.408 3.01 3.01 0 01-1.428-.336 2.61 2.61 0 01-1.008-.972V51h-.816v-8.904h.852v3.792c.264-.408.6-.716 1.008-.924.416-.216.88-.324 1.392-.324zm-.06 5.664c.44 0 .84-.1 1.2-.3.36-.208.64-.5.84-.876.208-.376.312-.804.312-1.284s-.104-.908-.312-1.284c-.2-.376-.48-.664-.84-.864a2.355 2.355 0 00-1.2-.312c-.448 0-.852.104-1.212.312-.352.2-.632.488-.84.864-.2.376-.3.804-.3 1.284s.1.908.3 1.284c.208.376.488.668.84.876.36.2.764.3 1.212.3zM127.86 48.108h-5.28c.048.656.3 1.188.756 1.596.456.4 1.032.6 1.728.6.392 0 .752-.068 1.08-.204.328-.144.612-.352.852-.624l.48.552c-.28.336-.632.592-1.056.768a3.507 3.507 0 01-1.38.264c-.648 0-1.224-.136-1.728-.408a3.038 3.038 0 01-1.164-1.152 3.267 3.267 0 01-.42-1.656c0-.616.132-1.168.396-1.656.272-.488.64-.868 1.104-1.14.472-.272 1-.408 1.584-.408a3.05 3.05 0 011.572.408c.464.272.828.652 1.092 1.14.264.48.396 1.032.396 1.656l-.012.264zm-3.048-2.736c-.608 0-1.12.196-1.536.588-.408.384-.64.888-.696 1.512h4.476c-.056-.624-.292-1.128-.708-1.512-.408-.392-.92-.588-1.536-.588zM131.658 51.06a5.03 5.03 0 01-1.476-.216c-.464-.152-.828-.34-1.092-.564l.384-.672c.264.208.596.38.996.516.4.128.816.192 1.248.192.576 0 1-.088 1.272-.264a.87.87 0 00.42-.768c0-.232-.076-.412-.228-.54a1.41 1.41 0 00-.576-.3 7.263 7.263 0 00-.924-.204 11.681 11.681 0 01-1.236-.288 1.908 1.908 0 01-.804-.516c-.216-.24-.324-.572-.324-.996 0-.528.22-.96.66-1.296.44-.336 1.052-.504 1.836-.504.408 0 .816.056 1.224.168.408.104.744.244 1.008.42l-.372.684c-.52-.36-1.14-.54-1.86-.54-.544 0-.956.096-1.236.288-.272.192-.408.444-.408.756 0 .24.076.432.228.576.16.144.356.252.588.324.232.064.552.132.96.204.504.096.908.192 1.212.288.304.096.564.26.78.492.216.232.324.552.324.96 0 .552-.232.992-.696 1.32-.456.32-1.092.48-1.908.48zM139.521 50.616c-.16.144-.36.256-.6.336a2.456 2.456 0 01-.732.108c-.592 0-1.048-.16-1.368-.48-.32-.32-.48-.772-.48-1.356v-3.816h-1.128v-.72h1.128v-1.38h.852v1.38h1.92v.72h-1.92v3.768c0 .376.092.664.276.864.192.192.464.288.816.288.176 0 .344-.028.504-.084.168-.056.312-.136.432-.24l.3.612zM148.185 44.64c.592 0 1.128.136 1.608.408.48.264.856.64 1.128 1.128.272.488.408 1.044.408 1.668 0 .632-.136 1.192-.408 1.68a2.916 2.916 0 01-1.128 1.14c-.472.264-1.008.396-1.608.396-.512 0-.976-.104-1.392-.312a2.687 2.687 0 01-1.008-.936v3.516h-.852v-8.64h.816v1.248a2.637 2.637 0 011.008-.96 3.01 3.01 0 011.428-.336zm-.06 5.664c.44 0 .84-.1 1.2-.3.36-.208.64-.5.84-.876.208-.376.312-.804.312-1.284s-.104-.904-.312-1.272c-.2-.376-.48-.668-.84-.876a2.355 2.355 0 00-1.2-.312c-.448 0-.852.104-1.212.312a2.27 2.27 0 00-.84.876c-.2.368-.3.792-.3 1.272s.1.908.3 1.284c.208.376.488.668.84.876.36.2.764.3 1.212.3zM154.241 45.924c.2-.424.496-.744.888-.96.4-.216.892-.324 1.476-.324v.828l-.204-.012c-.664 0-1.184.204-1.56.612-.376.408-.564.98-.564 1.716V51h-.852v-6.312h.816v1.236zM161.029 51.06a3.319 3.319 0 01-1.644-.408 3.063 3.063 0 01-1.152-1.152 3.267 3.267 0 01-.42-1.656c0-.616.14-1.168.42-1.656.28-.488.664-.868 1.152-1.14a3.319 3.319 0 011.644-.408c.608 0 1.156.136 1.644.408.488.272.868.652 1.14 1.14.28.488.42 1.04.42 1.656 0 .616-.14 1.168-.42 1.656a2.976 2.976 0 01-1.14 1.152 3.319 3.319 0 01-1.644.408zm0-.756c.448 0 .848-.1 1.2-.3.36-.208.64-.5.84-.876.2-.376.3-.804.3-1.284s-.1-.908-.3-1.284c-.2-.376-.48-.664-.84-.864a2.314 2.314 0 00-1.2-.312c-.448 0-.852.104-1.212.312-.352.2-.632.488-.84.864-.2.376-.3.804-.3 1.284s.1.908.3 1.284c.208.376.488.668.84.876.36.2.764.3 1.212.3zM165.397 53.388c-.264 0-.512-.036-.744-.108a1.41 1.41 0 01-.588-.3l.3-.648c.248.216.576.324.984.324.336 0 .592-.1.768-.3.184-.2.276-.496.276-.888v-6.78h.852v6.78c0 .592-.16 1.06-.48 1.404-.32.344-.776.516-1.368.516zm1.428-10.092a.603.603 0 01-.444-.18.59.59 0 01-.18-.432c0-.16.06-.3.18-.42s.268-.18.444-.18.324.06.444.18c.12.112.18.248.18.408 0 .176-.06.324-.18.444a.603.603 0 01-.444.18zM175.482 48.108h-5.28c.048.656.3 1.188.756 1.596.456.4 1.032.6 1.728.6.392 0 .752-.068 1.08-.204.328-.144.612-.352.852-.624l.48.552c-.28.336-.632.592-1.056.768a3.507 3.507 0 01-1.38.264c-.648 0-1.224-.136-1.728-.408a3.038 3.038 0 01-1.164-1.152 3.267 3.267 0 01-.42-1.656c0-.616.132-1.168.396-1.656.272-.488.64-.868 1.104-1.14.472-.272 1-.408 1.584-.408a3.05 3.05 0 011.572.408c.464.272.828.652 1.092 1.14.264.48.396 1.032.396 1.656l-.012.264zm-3.048-2.736c-.608 0-1.12.196-1.536.588-.408.384-.64.888-.696 1.512h4.476c-.056-.624-.292-1.128-.708-1.512-.408-.392-.92-.588-1.536-.588zM180.204 51.06a3.436 3.436 0 01-1.68-.408 2.976 2.976 0 01-1.152-1.14 3.333 3.333 0 01-.42-1.668c0-.616.14-1.168.42-1.656.28-.488.664-.868 1.152-1.14a3.436 3.436 0 011.68-.408c.544 0 1.028.108 1.452.324.432.208.772.516 1.02.924l-.636.432a1.945 1.945 0 00-.792-.696c-.32-.16-.668-.24-1.044-.24-.456 0-.868.104-1.236.312-.36.2-.644.488-.852.864-.2.376-.3.804-.3 1.284 0 .488.1.92.3 1.296.208.368.492.656.852.864.368.2.78.3 1.236.3.376 0 .724-.076 1.044-.228.32-.152.584-.384.792-.696l.636.432c-.248.408-.588.72-1.02.936a3.304 3.304 0 01-1.452.312zM188.104 50.616c-.16.144-.36.256-.6.336a2.456 2.456 0 01-.732.108c-.592 0-1.048-.16-1.368-.48-.32-.32-.48-.772-.48-1.356v-3.816h-1.128v-.72h1.128v-1.38h.852v1.38h1.92v.72h-1.92v3.768c0 .376.092.664.276.864.192.192.464.288.816.288.176 0 .344-.028.504-.084.168-.056.312-.136.432-.24l.3.612zM199.012 48.108h-5.28c.048.656.3 1.188.756 1.596.456.4 1.032.6 1.728.6.392 0 .752-.068 1.08-.204.328-.144.612-.352.852-.624l.48.552c-.28.336-.632.592-1.056.768a3.507 3.507 0 01-1.38.264c-.648 0-1.224-.136-1.728-.408A3.038 3.038 0 01193.3 49.5a3.267 3.267 0 01-.42-1.656c0-.616.132-1.168.396-1.656.272-.488.64-.868 1.104-1.14.472-.272 1-.408 1.584-.408a3.05 3.05 0 011.572.408c.464.272.828.652 1.092 1.14.264.48.396 1.032.396 1.656l-.012.264zm-3.048-2.736c-.608 0-1.12.196-1.536.588-.408.384-.64.888-.696 1.512h4.476c-.056-.624-.292-1.128-.708-1.512-.408-.392-.92-.588-1.536-.588zM206.305 44.688L203.497 51h-.876l-2.796-6.312h.888l2.364 5.376 2.388-5.376h.84zM213.185 48.108h-5.28c.048.656.3 1.188.756 1.596.456.4 1.032.6 1.728.6.392 0 .752-.068 1.08-.204.328-.144.612-.352.852-.624l.48.552c-.28.336-.632.592-1.056.768a3.507 3.507 0 01-1.38.264c-.648 0-1.224-.136-1.728-.408a3.038 3.038 0 01-1.164-1.152 3.267 3.267 0 01-.42-1.656c0-.616.132-1.168.396-1.656.272-.488.64-.868 1.104-1.14.472-.272 1-.408 1.584-.408a3.05 3.05 0 011.572.408c.464.272.828.652 1.092 1.14.264.48.396 1.032.396 1.656l-.012.264zm-3.048-2.736c-.608 0-1.12.196-1.536.588-.408.384-.64.888-.696 1.512h4.476c-.056-.624-.292-1.128-.708-1.512-.408-.392-.92-.588-1.536-.588zM216.107 45.924c.2-.424.496-.744.888-.96.4-.216.892-.324 1.476-.324v.828l-.204-.012c-.664 0-1.184.204-1.56.612-.376.408-.564.98-.564 1.716V51h-.852v-6.312h.816v1.236z" fill="#405063"/><circle cx="30" cy="30" r="30" fill="#4992e6"/><path d="M32.904 18.6V41H29.48L17.128 25.832V41H13V18.6h3.424l12.352 15.168V18.6h4.128zM43 18.5h4.5V41H43V18.5z" fill="#fff"/><path d="M41.492 18.5V24h-5.5l5.5-5.5z" fill="#9bebff"/></svg>